/* XPM */
static char *result[] = {
/* columns rows colors chars-per-pixel */
"64 64 23 1 ",
"  c #190301",
". c #1D0301",
"X c #1E0705",
"o c #1E1918",
"O c #220401",
"+ c #220601",
"@ c #2A0701",
"# c #220804",
"$ c #2A0A04",
"% c #240B09",
"& c #240F0C",
"* c #320801",
"= c #3B0A01",
"- c #2C130F",
"; c #231512",
": c #351713",
"> c #2A2024",
", c #382E2B",
"< c #2A2E31",
"1 c #34393C",
"2 c #3E484D",
"3 c #495960",
"4 c #657278",
/* pixels */
"4432323333333232322222222,2,2,2,4432323333333232322222222,2,2,2,",
"411111111<1<111<111111<11111111,411111111<1<111<111111<11111111,",
"31111111<1<1111111111<1<1<1111<>31111111<1<1111111111<1<1<1111<>",
"4113111<1<1111111111<1<2<111311,4113111<1<1111111111<1<2<111311,",
"31>111<111111111111<2121111>11<>31>111<111111111111<2121111>11<>",
"31111<111<11111<2112111111111<1,31111<111<11111<2112111111111<1,",
"3111>212<11111>3111111<11111<21>3111>212<11111>3111111<11111<21>",
"311>3<113>111<2<11111<11111<111>311>3<113>111<2<11111<11111<111>",
"3113<111<311<1<112>1<<<111<1<11>3113<111<311<1<112>1<<<111<1<11>",
"312<1111112<<<11113>1<11111>211>312<1111112<<<11113>1<11111>211>",
"31<1<1111111<112>112<11111>3111>31<1<1111111<112>112<11111>3111>",
"3<1<1111111<1<11=o1<21@@1<21111>3<1<1111111<1<113o1<21111<21111>",
"2111111111<<<21113>111@@-211111>2111111111<<<21113>111111211111>",
"31112<111<2<2111112<11@@@11-@11>31112<111<2<2111112<11111111111>",
"211112>1<211111<@+@2@11@111@@1<;211112>1<211111<1<121111111111<;",
"3111<13>11111111+@@111<1@11+111%=111<13>11111111<11111<1111<111>",
"211<11121111111<1@@@1<11@1<211@.211<11121111111<11111<1111<2111;",
"21<1111111<111>2111@+2-@:>2@111>*@&1111111<111>21111<2112>21111>",
"2<1<11111<111>21@11<*@---* 1<@@.*+@&11111<111>21111<211112o1<11;",
"21<11111<111<2111@+#<$-@@@3>@@-X*@+@1111<111<21111<<<111113>111;",
"2111111<111<@@-11<1<*@@@@@+*@@@;2-@@111<111<11111<1<211111<2111;",
"211111<1<1<11111>2<*@@@@@+-@@@-;211111<1<1<11111>2<211111<11111;",
"21111>2<<<11111o31@@@@@@@@@1<1@.21111>2<<<11111o311111111111<11;",
"2111>3<1>21111o31@@@-*@@@@@+@11;*111>3<1>21111o311111211111<111;",
",11<3<1>31111>31-@@O:@@@+@+2%@+;,11<3<1>31111>31111>2111<1<2>1<;",
"2112<1121111&*@1@1>2@1@O<<@<2<@.:112<1121111<21111>2111><<1<2<1;",
",11111211111*@112121@1O*+21@121;,111112111112111212111>2<211121;",
"21111111<11111<2111@@<*+=<1@@11;21111111<11111<211111<2<3<11111;",
",1131<1<211<1>2@111@@2<*1@1@=@@;,1131<1<211<1>21111112<21111311;",
"21>1<1<211<1<2-@11@@@<1@1<1%@@@;21>1<1<211<1<21111111<111<1>111;",
",1111<11111<111111+@@1@@<111@@-;,1111<11111<111111<11111<111111;",
",,,>,>,>>>>>>>>;>;%.;;.;;;;;;;;;,,,>,>,>>>>>>>>;>;>;;;;;;;;;;;;;",
"44323233333332323222222*2,2,2,:,4432323333333232322222222,2,2,2,",
"411111111<1<111<1@1111<1111111@,411111111<1<111<111111<11111111,",
"31111111<1<111111@111<1<1<1111<>31111111<1<1111111111<1<1<1111<>",
"4113111<1<111111-111<1<2<111311,4113111<1<1111111111<1<2<111311,",
"31>111<111111111111<2121111>11<>31>111<111111111111<2121111>11<>",
"31111<111<11111<2112111111111<1,31111<111<11111<2112111111111<1,",
"3111>212<11111>3111111<11111<21>3111>212<11111>3111111<11111<21>",
"311>3<113>111<2<11111<11111<111>311>3<113>111<2<11111<11111<111>",
"3113<111<311<1<112>1<<<111<1<11>3113<111<311<1<112>1<<<111<1<11>",
"312<1111112<<<11113>1<11111>211>312<1111112<<<11113>1<11111>211>",
"31<1<1111111<112>112<11111>3111>31<1<1111111<112>112<11111>3111>",
"3<1<1111111<1<113o1<21111<21111>3<1<1111111<1<113o1<21111<21111>",
"2111111111<<<21113>111111211111>2111111111<<<21113>111111211111>",
"31112<111<2<2111112<11111111111>31112<111<2<2111112<11111111111>",
"211112>1<211111<1<121111111111<;211112>1<211111<1<121111111111<;",
"3111<13>11111111<11111<1111<111>3111<13>11111111<11111<1111<111>",
"211<11121111111<11111<1111<2111;211<11121111111<11111<1111<2111;",
"21<1111111<111>21111<2112>21111>21<1111111<111>21111<2112>21111>",
"2<1<11111<111>21111<211112o1<11;2<1<11111<111>21111<211112o1<11;",
"21<11111<111<21111<<<111113>111;21<11111<111<21111<<<111113>111;",
"2111111<111<11111<1<211111<2111;2111111<111<11111<1<211111<2111;",
"211111<1<1<11111>2<211111<11111;211111<1<1<11111>2<211111<11111;",
"21111>2<<<11111o311111111111<11;21111>2<<<11111o311111111111<11;",
"2111>3<1>21111o311111211111<111;2111>3<1>21111o311111211111<111;",
",11<3<1>31111>31111>2111<1<2>1<;,11<3<1>31111>31111>2111<1<2>1<;",
"2112<1121111<21111>2111><<1<2<1;2112<1121111<21111>2111><<1<2<1;",
",111112111112111212111>2<211121;,111112111112111212111>2<211121;",
"21111111<11111<211111<2<3<11111;21111111<11111<211111<2<3<11111;",
",1131<1<211<1>21111112<21111311;,1131<1<211<1>21111112<21111311;",
"21>1<1<211<1<21111111<111<1>111;21>1<1<211<1<21111111<111<1>111;",
",1111<11111<111111<11111<111111;,1111<11111<111111<11111<111111;",
",,,>,>,>>>>>>>>;>;>;;;;;;;;;;;;;,,,>,>,>>>>>>>>;>;>;;;;;;;;;;;;;"
};
