/* XPM */
static char *result[] = {
/* columns rows colors chars-per-pixel */
"64 64 9 1 ",
"  c black",
". c gray6",
"X c gray7",
"o c #151515",
"O c #191716",
"+ c #1E1918",
"@ c #202224",
"# c #2A2024",
"$ c #2A2E31",
/* pixels */
".oooOo.oooooOooo+o ++Oo@X.ooooOo.oooOo.oooooOooo+o ++Oo@X.ooooOo",
"Xoo+oooXo+o+oo++oX.+oo$oooooooX.Xoo+oooXo+o+oo++oX.+oo$oooooooX.",
"oOo+.ooo+o+.oooooOo@@$o+.+oooO+ooOo+.ooo+o+.oooooOo@@$o+.+oooO+o",
"oo+Xoo+.o+oooooooooo+o+X+OoX.ooooo+Xoo+.o+oooooooooo+o+X+OoX.ooo",
"oooooo+ooo.oo+ooo+oXooooo.oo+o.ooooooo+ooo.oo+ooo+oXooooo.oo+o.o",
"ooo.O+ooo+ooooo.Ooooo+.o+oooo+ooooo.O+ooo+ooooo.Ooooo+.o+oooo+oo",
"ooXX+ooo+.   o+ooOoooo+Xoooo+oOXooXX+ooo+.   o+ooOoooo+Xoooo+oOX",
".oo+oO.+. ++..o+oooXo+ooooo+oooo.oo+oO.+. ++..o+oooXo+ooooo+oooo",
"ooOo+oo. ++oo.@ooooo++Ooo.+XOoooooOo+oo. ++oo.@ooooo++Ooo.+XOooo",
"oooOooo ++o+++$.Xoo+.+ooooo+oooXoooOooo ++o+++$.Xoo+.+ooooo+oooX",
"Xo+.Ooo .++o+$#oooOo++ooXo+Oo.+oXo+.Ooo .++o+$#oooOo++ooXo+Oo.+o",
"o+.+oooo+oo$$#XooXo+ooooo+oOooXoo+.+oooo+oo$$#XooXo+ooooo+oOooXo",
"+oooooooo@@#+Oo .oo+ooO.o+oooooo+oooooooo@@#+Oo .oo+ooO.o+oooooo",
"oo.oooXoo+X++o +o@ooooooooooooo+oo.oooXoo+X++o +o@ooooooooooooo+",
"o+Xooo.o+o.ooo.oo$oooXoooXoooO+oo+Xooo.o+o.ooo.oo$oooXoooXoooO+o",
"oooo+Oo+ooooooo@$oo.oo+oo+.+oo.ooooo+Oo+ooooooo@$oo.oo+oo+.+oo.o",
".oo.ooooooXooooXoOoXo+.Ooo+oOo+o.oo.ooooooXooooXoOoXo+.Ooo+oOo+o",
"oo+oXooooo.ooo+oo.oo+oooo++ooooooo+oXooooo.ooo+oo.oo+oooo++ooooo",
"oXo.XoooX+oooOo.o+.+oo+oo+  .ooooXo.XoooX+oooOo.o+.+oo+oo+  .ooo",
"+o+o.+o.+ooo+ooooo+++oooX .++.oo+o+o.+o.+ooo+ooooo+++oooX .++.oo",
"XoOoooo+Ooo+ooOoO+o+o+oo..++++.OXoOoooo+Ooo+ooOoO+o+o+oo..++++.O",
"ooo.oo+o+oOooooo+o+.ooo+ +oooo+.ooo.oo+o+oOooooo+o+.ooo+ +oooo+.",
"+++oX+o+++oo.oo.oXoooO+ .oo++oo++++oX+o+++oo.oo.oXoooO+ .oo++oo+",
"oo@oOo+O.oo+oX++oooooo .oo+++o+ooo@oOo+O.oo+oX++oooooo .oo+++o+o",
"oo@++.o++oooooooOoo.oo.++o+o+++ooo@++.o++oooooooOoo.oo.++o+o+++o",
"oo$o+ooooOooo+oooo+ooO.+o+o+++++oo$o+ooooOooo+oooo+ooO.+o+o+++++",
"o$#+oooOoooOoooooo.+oo.o+++o+oooo$#+oooOoooOoooooo.+oo.o+++o+ooo",
"$#X.+ooo.ooXoo+.ooooo.X+o+o+o+#$$#X.+ooo.ooXoo+.ooooo.X+o+o+o+#$",
"ooooo+o+oo.+oOoooooooo.o@@@$@$$#ooooo+o+oo.+oOoooooooo.o@@@$@$$#",
"oo.o+o+oo++o+oo+.oooO+o+o+oo+oOooo.o+o+oo++o+oo+.oooO+o+o+oo+oOo",
"oOooo.oooooOoooooo+.  .oXOoooooooOooo.oooooOoooooo+.  .oXOoooooo",
"ooOo+oooooXoo.oXo+o .++@.ooooo+oooOo+oooooXoo.oXo+o .++@.ooooo+o",
".oooOo.oooooOooo+o ++Oo@X.ooooOo.oooOo.oooooOooo+o ++Oo@X.ooooOo",
"Xoo+oooXo+o+oo++oX.+oo$oooooooX.Xoo+oooXo+o+oo++oX.+oo$oooooooX.",
"oOo+.ooo+o+.oooooOo@@$o+.+oooO+ooOo+.ooo+o+.oooooOo@@$o+.+oooO+o",
"oo+Xoo+.o+oooooooooo+o+X+OoX.ooooo+Xoo+.o+oooooooooo+o+X+OoX.ooo",
"oooooo+ooo.oo+ooo+oXooooo.oo+o.ooooooo+ooo.oo+ooo+oXooooo.oo+o.o",
"ooo.O+ooo+ooooo.Ooooo+.o+oooo+ooooo.O+ooo+ooooo.Ooooo+.o+oooo+oo",
"ooXX+ooo+.   o+ooOoooo+Xoooo+oOXooXX+ooo+.   o+ooOoooo+Xoooo+oOX",
".oo+oO.+. ++..o+oooXo+ooooo+oooo.oo+oO.+. ++..o+oooXo+ooooo+oooo",
"ooOo+oo. ++oo.@ooooo++Ooo.+XOoooooOo+oo. ++oo.@ooooo++Ooo.+XOooo",
"oooOooo ++o+++$.Xoo+.+ooooo+oooXoooOooo ++o+++$.Xoo+.+ooooo+oooX",
"Xo+.Ooo .++o+$#oooOo++ooXo+Oo.+oXo+.Ooo .++o+$#oooOo++ooXo+Oo.+o",
"o+.+oooo+oo$$#XooXo+ooooo+oOooXoo+.+oooo+oo$$#XooXo+ooooo+oOooXo",
"+oooooooo@@#+Oo .oo+ooO.o+oooooo+oooooooo@@#+Oo .oo+ooO.o+oooooo",
"oo.oooXoo+X++o +o@ooooooooooooo+oo.oooXoo+X++o +o@ooooooooooooo+",
"o+Xooo.o+o.ooo.oo$oooXoooXoooO+oo+Xooo.o+o.ooo.oo$oooXoooXoooO+o",
"oooo+Oo+ooooooo@$oo.oo+oo+.+oo.ooooo+Oo+ooooooo@$oo.oo+oo+.+oo.o",
".oo.ooooooXooooXoOoXo+.Ooo+oOo+o.oo.ooooooXooooXoOoXo+.Ooo+oOo+o",
"oo+oXooooo.ooo+oo.oo+oooo++ooooooo+oXooooo.ooo+oo.oo+oooo++ooooo",
"oXo.XoooX+oooOo.o+.+oo+oo+  .ooooXo.XoooX+oooOo.o+.+oo+oo+  .ooo",
"+o+o.+o.+ooo+ooooo+++oooX .++.oo+o+o.+o.+ooo+ooooo+++oooX .++.oo",
"XoOoooo+Ooo+ooOoO+o+o+oo..++++.OXoOoooo+Ooo+ooOoO+o+o+oo..++++.O",
"ooo.oo+o+oOooooo+o+.ooo+ +oooo+.ooo.oo+o+oOooooo+o+.ooo+ +oooo+.",
"+++oX+o+++oo.oo.oXoooO+ .oo++oo++++oX+o+++oo.oo.oXoooO+ .oo++oo+",
"oo@oOo+O.oo+oX++oooooo .oo+++o+ooo@oOo+O.oo+oX++oooooo .oo+++o+o",
"oo@++.o++oooooooOoo.oo.++o+o+++ooo@++.o++oooooooOoo.oo.++o+o+++o",
"oo$o+ooooOooo+oooo+ooO.+o+o+++++oo$o+ooooOooo+oooo+ooO.+o+o+++++",
"o$#+oooOoooOoooooo.+oo.o+++o+oooo$#+oooOoooOoooooo.+oo.o+++o+ooo",
"$#X.+ooo.ooXoo+.ooooo.X+o+o+o+#$$#X.+ooo.ooXoo+.ooooo.X+o+o+o+#$",
"ooooo+o+oo.+oOoooooooo.o@@@$@$$#ooooo+o+oo.+oOoooooooo.o@@@$@$$#",
"oo.o+o+oo++o+oo+.oooO+o+o+oo+oOooo.o+o+oo++o+oo+.oooO+o+o+oo+oOo",
"oOooo.oooooOoooooo+.  .oXOoooooooOooo.oooooOoooooo+.  .oXOoooooo",
"ooOo+oooooXoo.oXo+o .++@.ooooo+oooOo+oooooXoo.oXo+o .++@.ooooo+o"
};
