/* XPM */
static char *result[] = {
/* columns rows colors chars-per-pixel */
"64 64 10 1 ",
"  c black",
". c gray6",
"X c #1B1412",
"o c #1F1512",
"O c #1E1918",
"+ c #231512",
"@ c #281915",
"# c #2E1E1C",
"$ c #2A2024",
"% c #342323",
/* pixels */
"X+++@+X+++++@+++O+ OO@+#oX++++@+X+++@+X+++++@+++O+ OO@+#oX++++@+",
"o++O+++o+O+O++OO+o.O++%+++++++oXo++O+++o+O+O++OO+o.O++%+++++++oX",
"+@+OX+++O+OX+++++@+##%+OXO+++@O++@+OX+++O+OX+++++@+##%+OXO+++@O+",
"++Oo++OX+O++++++++++O+OoO@+oX+++++Oo++OX+O++++++++++O+OoO@+oX+++",
"++++++O+++X++O+++O+o+++++X++O+X+++++++O+++X++O+++O+o+++++X++O+X+",
"+++X@O+++O+++++X@++++OX+O++++O+++++X@O+++O+++++X@++++OX+O++++O++",
"++ooO+++OX   +O++@++++Oo++++O+@o++ooO+++OX   +O++@++++Oo++++O+@o",
"X++O+@XOX OOX.+O+++o+O+++++O++++X++O+@XOX OOX.+O+++o+O+++++O++++",
"++@+O++X OO++X#+++++OO@++XOo@+++++@+O++X OO++X#+++++OO@++XOo@+++",
"+++@+++ OO+OOO%Xo++OXO+++++O+++o+++@+++ OO+OOO%Xo++OXO+++++O+++o",
"o+OX@++ XOO+O%$+++@+OO++o+O@+XO+o+OX@++ XOO+O%$+++@+OO++o+O@+XO+",
"+OXO++++O++%%$o++o+O+++++O+@++o++OXO++++O++%%$o++o+O+++++O+@++o+",
"O++++++++##$O@+ X++O++@X+O++++++O++++++++##$O@+ X++O++@X+O++++++",
"++X+++o++OoOO+ O+@+++++++++++++O++X+++o++OoOO+ O+@+++++++++++++O",
"+Oo+++X+O+X+++X++%+++o+++o+++@O++Oo+++X+O+X+++X++%+++o+++o+++@O+",
"++++O@+O+++++++@%++X++O++OXO++X+++++O@+O+++++++@%++X++O++OXO++X+",
"X++X++++++o++++o+@+o+OX@++O+@+O+X++X++++++o++++o+@+o+OX@++O+@+O+",
"++O+o+++++X+++O++X++O++++OO+++++++O+o+++++X+++O++X++O++++OO+++++",
"+o+Xo+++oO+++@+X+OXO++O++O  .++++o+Xo+++oO+++@+X+OXO++O++O  .+++",
"O+O+XO+XO+++O+++++OOO+++o .OO.++O+O+XO+XO+++O+++++OOO+++o .OO.++",
"o+@++++O@++O++@+@O+O+O++..OOOO.@o+@++++O@++O++@+@O+O+O++..OOOO.@",
"+++X++O+O+@+++++O+OX+++O O++++O.+++X++O+O+@+++++O+OX+++O O++++O.",
"OOO+oO+OOO++X++X+o+++@O .++OO++OOOO+oO+OOO++X++X+o+++@O .++OO++O",
"++#+@+O@X++O+oOO++++++ .++OOO+O+++#+@+O@X++O+oOO++++++ .++OOO+O+",
"++#OOX+OO+++++++@++X++.OO+O+OOO+++#OOX+OO+++++++@++X++.OO+O+OOO+",
"++%+O++++@+++O++++O++@.O+O+OOOOO++%+O++++@+++O++++O++@.O+O+OOOOO",
"+%$O+++@+++@++++++XO++.+OOO+O++++%$O+++@+++@++++++XO++.+OOO+O+++",
"%$oXO+++X++o++OX+++++XoO+O+O+O$%%$oXO+++X++o++OX+++++XoO+O+O+O$%",
"+++++O+O++XO+@++++++++X+###%#%%$+++++O+O++XO+@++++++++X+###%#%%$",
"++X+O+O++OO+O++OX+++@O+O+O++O+@+++X+O+O++OO+O++OX+++@O+O+O++O+@+",
"+@+++X+++++@++++++OX  .+o@+++++++@+++X+++++@++++++OX  .+o@++++++",
"++@+O+++++o++X+o+O+ .OO@X+++++O+++@+O+++++o++X+o+O+ .OO@X+++++O+",
"X+++@+X+++++@+++O+ OO@+#oX++++@+X+++@+X+++++@+++O+ OO@+#oX++++@+",
"o++O+++o+O+O++OO+o.O++%+++++++oXo++O+++o+O+O++OO+o.O++%+++++++oX",
"+@+OX+++O+OX+++++@+##%+OXO+++@O++@+OX+++O+OX+++++@+##%+OXO+++@O+",
"++Oo++OX+O++++++++++O+OoO@+oX+++++Oo++OX+O++++++++++O+OoO@+oX+++",
"++++++O+++X++O+++O+o+++++X++O+X+++++++O+++X++O+++O+o+++++X++O+X+",
"+++X@O+++O+++++X@++++OX+O++++O+++++X@O+++O+++++X@++++OX+O++++O++",
"++ooO+++OX   +O++@++++Oo++++O+@o++ooO+++OX   +O++@++++Oo++++O+@o",
"X++O+@XOX OOX.+O+++o+O+++++O++++X++O+@XOX OOX.+O+++o+O+++++O++++",
"++@+O++X OO++X#+++++OO@++XOo@+++++@+O++X OO++X#+++++OO@++XOo@+++",
"+++@+++ OO+OOO%Xo++OXO+++++O+++o+++@+++ OO+OOO%Xo++OXO+++++O+++o",
"o+OX@++ XOO+O%$+++@+OO++o+O@+XO+o+OX@++ XOO+O%$+++@+OO++o+O@+XO+",
"+OXO++++O++%%$o++o+O+++++O+@++o++OXO++++O++%%$o++o+O+++++O+@++o+",
"O++++++++##$O@+ X++O++@X+O++++++O++++++++##$O@+ X++O++@X+O++++++",
"++X+++o++OoOO+ O+@+++++++++++++O++X+++o++OoOO+ O+@+++++++++++++O",
"+Oo+++X+O+X+++X++%+++o+++o+++@O++Oo+++X+O+X+++X++%+++o+++o+++@O+",
"++++O@+O+++++++@%++X++O++OXO++X+++++O@+O+++++++@%++X++O++OXO++X+",
"X++X++++++o++++o+@+o+OX@++O+@+O+X++X++++++o++++o+@+o+OX@++O+@+O+",
"++O+o+++++X+++O++X++O++++OO+++++++O+o+++++X+++O++X++O++++OO+++++",
"+o+Xo+++oO+++@+X+OXO++O++O  .++++o+Xo+++oO+++@+X+OXO++O++O  .+++",
"O+O+XO+XO+++O+++++OOO+++o .OO.++O+O+XO+XO+++O+++++OOO+++o .OO.++",
"o+@++++O@++O++@+@O+O+O++..OOOO.@o+@++++O@++O++@+@O+O+O++..OOOO.@",
"+++X++O+O+@+++++O+OX+++O O++++O.+++X++O+O+@+++++O+OX+++O O++++O.",
"OOO+oO+OOO++X++X+o+++@O .++OO++OOOO+oO+OOO++X++X+o+++@O .++OO++O",
"++#+@+O@X++O+oOO++++++ .++OOO+O+++#+@+O@X++O+oOO++++++ .++OOO+O+",
"++#OOX+OO+++++++@++X++.OO+O+OOO+++#OOX+OO+++++++@++X++.OO+O+OOO+",
"++%+O++++@+++O++++O++@.O+O+OOOOO++%+O++++@+++O++++O++@.O+O+OOOOO",
"+%$O+++@+++@++++++XO++.+OOO+O++++%$O+++@+++@++++++XO++.+OOO+O+++",
"%$oXO+++X++o++OX+++++XoO+O+O+O$%%$oXO+++X++o++OX+++++XoO+O+O+O$%",
"+++++O+O++XO+@++++++++X+###%#%%$+++++O+O++XO+@++++++++X+###%#%%$",
"++X+O+O++OO+O++OX+++@O+O+O++O+@+++X+O+O++OO+O++OX+++@O+O+O++O+@+",
"+@+++X+++++@++++++OX  .+o@+++++++@+++X+++++@++++++OX  .+o@++++++",
"++@+O+++++o++X+o+O+ .OO@X+++++O+++@+O+++++o++X+o+O+ .OO@X+++++O+"
};
