/* XPM */
static char *result[] = {
/* columns rows colors chars-per-pixel */
"64 64 8 1 ",
"  c black",
". c gray6",
"X c #151515",
"o c #1E1918",
"O c #390601",
"+ c #2A2024",
"@ c #342323",
"# c #382E2B",
/* pixels */
"###@@@@@@+@@@@@@@@@@@@@@@+@@@@+@###@@@@@@+@@@@@@@@@@@@@@@+@@@@+@",
"@ooooooooooooooooooooooooooooooo@ooooooooooooooooooooooooooooooo",
"@o@Xoooooooooooooooooooooooo@XoX@o@Xoooooooooooooooooooooooo@XoX",
"+.XXooooooooooooooooooooooo.XXoo+.XXooooooooooooooooooooooo.XXoo",
"@..o ..X.X.......X.X.XXXXX. .ooX@..o ..X.X.......X.X.XXXXX. .ooX",
"+ooo.XoooooooooooooooooooooXoooX+ooo.XoooooooooooooooooooooXoooX",
"+ooo.oooooooooooooooooooooo+ooo.+ooo.oooooooooooooooooooooo+ooo.",
"+ooo.ooooooooooooooooooooOo+oooX+ooo.ooooooooooooooooooooOo+oooX",
"+oooXoooooooooooooooooooooo+ooo.+oooXoooooooooooooooooooooo+ooo.",
"+ooo.oOOOOOOOOOOOOOOOOOOoOo@ooo.+ooo.oOOOOOOOOOOOOOOOOOOoOo@ooo.",
"ooooXoooooooooooooooooooooo@ooo.ooooXoooooooooooooooooooooo@ooo.",
"+oooo++@+@+@++++++@+@+@@@@@@ooo.+oooo++@+@+@++++++@+@+@@@@@@ooo.",
"oo@Xoooooooooooooooooooooooo@Xo oo@Xoooooooooooooooooooooooo@Xo ",
"+.XXooooooooooooooooooooooo.XXo.+.XXooooooooooooooooooooooo.XXo.",
"o..oooooooooooooooooooooooo..oo o..oooooooooooooooooooooooo..oo ",
".      .        .      .        .      .        .      .        ",
"###@@@@@@+@@@@@@@@@@@@@@@+@@@@+@###@@@@@@+@@@@@@@@@@@@@@@+@@@@+@",
"@ooooooooooooooooooooooooooooooo@ooooooooooooooooooooooooooooooo",
"@o@Xoooooooooooooooooooooooo@XoX@o@Xoooooooooooooooooooooooo@XoX",
"+.XXooooooooooooooooooooooo.XXoo+.XXooooooooooooooooooooooo.XXoo",
"@..o ..X.X.......X.X.XXXXX. .ooX@..o ..X.X.......X.X.XXXXX. .ooX",
"+ooo.XoooooooooooooooooooooXoooX+ooo.XoooooooooooooooooooooXoooX",
"+ooo.oooooooooooooooooooooo+ooo.+ooo.oooooooooooooooooooooo+ooo.",
"+ooo.ooooooooooooooooooooOo+oooX+ooo.ooooooooooooooooooooOo+oooX",
"+oooXoooooooooooooooooooooo+ooo.+oooXoooooooooooooooooooooo+ooo.",
"+ooo.oOOOOOOOOOOOOOOOOOOoOo@ooo.+ooo.oOOOOOOOOOOOOOOOOOOoOo@ooo.",
"ooooXoooooooooooooooooooooo@ooo.ooooXoooooooooooooooooooooo@ooo.",
"+oooo++@+@+@++++++@+@+@@@@@@ooo.+oooo++@+@+@++++++@+@+@@@@@@ooo.",
"oo@Xoooooooooooooooooooooooo@Xo oo@Xoooooooooooooooooooooooo@Xo ",
"+.XXooooooooooooooooooooooo.XXo.+.XXooooooooooooooooooooooo.XXo.",
"o..oooooooooooooooooooooooo..oo o..oooooooooooooooooooooooo..oo ",
".      .        .      .        .      .        .      .        ",
"###@@@@@@+@@@@@@@@@@@@@@@+@@@@+@###@@@@@@+@@@@@@@@@@@@@@@+@@@@+@",
"@ooooooooooooooooooooooooooooooo@ooooooooooooooooooooooooooooooo",
"@o@Xoooooooooooooooooooooooo@XoX@o@Xoooooooooooooooooooooooo@XoX",
"+.XXooooooooooooooooooooooo.XXoo+.XXooooooooooooooooooooooo.XXoo",
"@..o ..X.X.......X.X.XXXXX. .ooX@..o ..X.X.......X.X.XXXXX. .ooX",
"+ooo.XoooooooooooooooooooooXoooX+ooo.XoooooooooooooooooooooXoooX",
"+ooo.oooooooooooooooooooooo+ooo.+ooo.oooooooooooooooooooooo+ooo.",
"+ooo.ooooooooooooooooooooOo+oooX+ooo.ooooooooooooooooooooOo+oooX",
"+oooXoooooooooooooooooooooo+ooo.+oooXoooooooooooooooooooooo+ooo.",
"+ooo.oOOOOOOOOOOOOOOOOOOoOo@ooo.+ooo.oOOOOOOOOOOOOOOOOOOoOo@ooo.",
"ooooXoooooooooooooooooooooo@ooo.ooooXoooooooooooooooooooooo@ooo.",
"+oooo++@+@+@++++++@+@+@@@@@@ooo.+oooo++@+@+@++++++@+@+@@@@@@ooo.",
"oo@Xoooooooooooooooooooooooo@Xo oo@Xoooooooooooooooooooooooo@Xo ",
"+.XXooooooooooooooooooooooo.XXo.+.XXooooooooooooooooooooooo.XXo.",
"o..oooooooooooooooooooooooo..oo o..oooooooooooooooooooooooo..oo ",
".      .        .      .        .      .        .      .        ",
"###@@@@@@+@@@@@@@@@@@@@@@+@@@@+@###@@@@@@+@@@@@@@@@@@@@@@+@@@@+@",
"@ooooooooooooooooooooooooooooooo@ooooooooooooooooooooooooooooooo",
"@o@Xoooooooooooooooooooooooo@XoX@o@Xoooooooooooooooooooooooo@XoX",
"+.XXooooooooooooooooooooooo.XXoo+.XXooooooooooooooooooooooo.XXoo",
"@..o ..X.X.......X.X.XXXXX. .ooX@..o ..X.X.......X.X.XXXXX. .ooX",
"+ooo.XoooooooooooooooooooooXoooX+ooo.XoooooooooooooooooooooXoooX",
"+ooo.oooooooooooooooooooooo+ooo.+ooo.oooooooooooooooooooooo+ooo.",
"+ooo.ooooooooooooooooooooOo+oooX+ooo.ooooooooooooooooooooOo+oooX",
"+oooXoooooooooooooooooooooo+ooo.+oooXoooooooooooooooooooooo+ooo.",
"+ooo.oOOOOOOOOOOOOOOOOOOoOo@ooo.+ooo.oOOOOOOOOOOOOOOOOOOoOo@ooo.",
"ooooXoooooooooooooooooooooo@ooo.ooooXoooooooooooooooooooooo@ooo.",
"+oooo++@+@+@++++++@+@+@@@@@@ooo.+oooo++@+@+@++++++@+@+@@@@@@ooo.",
"oo@Xoooooooooooooooooooooooo@Xo oo@Xoooooooooooooooooooooooo@Xo ",
"+.XXooooooooooooooooooooooo.XXo.+.XXooooooooooooooooooooooo.XXo.",
"o..oooooooooooooooooooooooo..oo o..oooooooooooooooooooooooo..oo ",
".      .        .      .        .      .        .      .        "
};
