/* XPM */
static char *result[] = {
/* columns rows colors chars-per-pixel */
"64 64 15 1 ",
"  c #190301",
". c #1B0E0C",
"X c #1E1918",
"o c #220401",
"O c #220601",
"+ c #2A0701",
"@ c #2C130F",
"# c #261212",
"$ c #261A19",
"% c #2F201E",
"& c #2A2024",
"* c #2A2E31",
"= c #34393C",
"- c #3E484D",
"; c #495960",
/* pixels */
"*&======*&==*===*&======*&======*&======*&==*===*&======*&======",
"X;&=====X;&*====X;&===*=X;&=====X;&=====X;&*====X;&===*=X;&=====",
"=X-&====*X-&=====X-&=*=*=X-&==*==X-&====*X-&=====X-&=*=*=X-&==*=",
"==X*===*=*X*======X**=*=*=X*======X*===*=*X*======X**=*=*=X*====",
"======&*======&*===*==&*====*=&*======&*======&*===*==&*====*=&*",
"=====&;X=====&;X=====&;X=====&;X=====&;X=====&;X=====&;X=====&;X",
"====&-X=====&-X=====&-X=====&-X=====&-X=====&-X=====&-X=====&-X=",
"===**X======*X=*====*X=====**X=====**X======*X=*====*X=====**X==",
"*&==*===*&====*=**==***=*&*=*===*&==*===*&====*=**==***=*&*=*===",
"X;&*====X;&*=*==X;&==*==X;&*====X;&*====X;&*=*==X;&==*==X;&*====",
"=X-&*====X-&*====X-&*====X-&=====X-&*====X-&*====X-&*====X-&====",
"=*X*=======*=*====X*=====*X*=====*X*=======*=*====X*=====*X*====",
"======&*==***=&*======&*======&*======&*==***=&*======&*======&*",
"=====&;X=*=*=&;X=====&;X=====&;X=====&;X=*=*=&;X=====&;X=====&;X",
"====&-X=*===&-X=====&-X=====&-X=====&-X=*===&-X=====&-X=====&-X=",
"====*X======*X======*X*====**X======*X======*X======*X*====**X==",
"*&=*====*&=====**&===*==*&*=====*&=*====*&=====**&===*==*&*=====",
"X;&=====X;&===*=X;&=*===X;&===+%X;&=====X;&===*=X;&=*===X;&=====",
"=X-&=====X-&=*===X-&=====X-&*====X-&=====X-&=*===X-&=====X-&*===",
"*=X*====*=X**=====X**=====X*====*=X*====*=X**=====X**=====X*====",
"======&*===*==&*=*=*==&*+=*===o*======&*===*==&*=*=*==&*==*===&*",
"=====&;X*=*==&;X*=*==&;X=*===&; %====&;X*=*==&;X*=*==&;X=*===&;X",
"====&-X***==&-X*====&-X=====&- =+==%o-X***==&-X*====&-X=====&-X=",
"====*X*=*===*X*=====*X==+++*OX=*===+OX*=*===*X*=====*X=====**X=*",
"*&=***=**&======**=*====OoO=*=*=O&=O**=$O&======**=*====*&*=*=*=",
"X;&=*===X;&=====X;&====*X;oO**== ;&=*=++X;&=====X;&====*X;&***==",
"=X-&=====X-&=====X-&==*=*X-oO===%X-o====+ -&=====X-&==*=*X-&*===",
"==X*====*=**==*===X*=*=*+*X*++%%%+ *=+++O+O$==*===X*=*=*=*X*====",
"=====*&*===*=*&*======&==+O@=@#O++==+O#$+++O=*&*======&===*===&*",
"====*&;X==*=*&;X====+o;X=*==+o; ++++Oo;X=%O+*&;X=====&;X=*===&;X",
"====&-X====*&-X=====&-X=*+=+o- +++%+o-.====*&-X=====&-X=*===&-X=",
"====*X======*X======O =+==++O +++++=*X+=====OX======*X======*X==",
"*&======*&==*===*&+=====*o++%+++Oo+++===*&==*===*&======*&======",
"X;&=====X;&*====X;&===*=.;o+%+++ ;o=%++=X;&*====X;&===*=X;&=====",
"=X-&====*X-&=====X-&%O+*+X-&+=O+=X-&==++$X-&=====X-&=*=*=X-&==*=",
"==X*===*=*X*======X*O+*=*=X*+=+++=XO===*=*X*======X**=*=*=X*====",
"======&*======&*===*==&*===+O=oO+==++=&*======&*===*==&*====*=&*",
"=====&;X=====&;X=====&; ===++&;X=+=++o;X=====&;X=====&;X=====&;X",
"====&-X=====&-X=====&-.+==++o-X====%o- =====&-X=====&-X=====&-X=",
"===**X======*X=*====*X====+OOX+====*O %=====*X=*====*X=====**X==",
"*&==*===*&====*=**==***=*&$+*=+=*&==*===*&====*=**==***=*&*=*===",
"X;&*====X;&*=*==X;&==*==X;&*===+X;&*==%=X;&*=*==X;&==*==X;&*====",
"=X-&*====X-&*====X-&*==== -&=====X-&*=+==X-&*====X-&*====X-&====",
"=*X*=======*=*====X*=====OX*=====*X*=======*=*====X*=====*X*====",
"======&*==***=&*======&*%=====&*======&*==***=&*======&*======&*",
"=====&;X=*=*=&;X=====&;X=====&;X=====&;X=*=*=&;X=====&;X=====&;X",
"====&-X=*===&-X=====&-X=====&- =====&-X=*===&-X=====&-X=====&-X=",
"====*X======*X======*X*====**X======*X======*X======*X*====**X==",
"*&=*====*&=====**&===*==*&*=====*&=*====*&=====**&===*==*&*=====",
"X;&=====X;&===*=X;&=*===X;&=====X;&=====X;&===*=X;&=*===X;&=====",
"=X-&=====X-&=*===X-&=====X-&*====X-&=====X-&=*===X-&=====X-&*===",
"*=X*====*=X**=====X**=====X*====*=X*====*=X**=====X**=====X*====",
"======&*===*==&*=*=*==&*==*===&*======&*===*==&*=*=*==&*==*===&*",
"=====&;X*=*==&;X*=*==&;X=*===&;X=====&;X*=*==&;X*=*==&;X=*===&;X",
"====&-X***==&-X*====&-X=====&-X=====&-X***==&-X*====&-X=====&-X=",
"====*X*=*===*X*=====*X=====**X=*====*X*=*===*X*=====*X=====**X=*",
"*&=***=**&======**=*====*&*=*=*=*&=***=**&======**=*====*&*=*=*=",
"X;&=*===X;&=====X;&====*X;&***==X;&=*===X;&=====X;&====*X;&***==",
"=X-&=====X-&=====X-&==*=*X-&*====X-&=====X-&=====X-&==*=*X-&*===",
"==X*====*=**==*===X*=*=*=*X*======X*====*=**==*===X*=*=*=*X*====",
"=====*&*===*=*&*======&===*===&*=====*&*===*=*&*======&===*===&*",
"====*&;X==*=*&;X=====&;X=*===&;X====*&;X==*=*&;X=====&;X=*===&;X",
"====&-X====*&-X=====&-X=*===&-X=====&-X====*&-X=====&-X=*===&-X=",
"====*X======*X======*X======*X======*X======*X======*X======*X=="
};
