/* XPM */
static char *result[] = {
/* columns rows colors chars-per-pixel */
"64 64 11 1 ",
"  c black",
". c gray6",
"X c #1E1918",
"o c #231512",
"O c #2A2024",
"+ c #382E2B",
"@ c #2A2E31",
"# c #34393C",
"$ c #3E484D",
"% c #495960",
"& c #657278",
/* pixels */
"&%%%%$.ooo$$+$++&%%%%$.ooo$$+$++&%%%%$.ooo$$+$++&%%%%$.ooo$$+$++",
"%#####%$%$#####O%#####%$%$#####O%#####%$%$#####O%#####%$%$#####O",
"%##############+%####@####$####+%##############+%####@####$####+",
"%##%###@####%##O$##%########%##O%##%###@####%##O$##%########%##O",
"$#O###O####O###O%#O########O###O$#O###O####O###O%#O########O###O",
"%####O$@#@#####O$#######O$#####O%####O$@#@#####O$#######O$#####O",
".$##@%@@@$#$O#O .%###@#O$#####O .$##@%@@@$#$O#O .%###@#O$#####O ",
"o%#@$##O$###$@o.o$##X$@$#####@o.o%#@$##O$###$@o.o$##X$@$#####@o.",
"o$####X%##@###O.o$#O%@######X$O.o$####X%##@###O.o$#O%@######X$O.",
"o$###O%##@###Oo.o$@$#$O####O%#o.o$###O%##@###Oo.o$@$#$O####O%#o.",
"+###@$######@$#O$@####%@##@%###o+###@$######@$#O$@####%@##@%###o",
"$######$O######o$######$##$####o$######$O######o$######$##$####o",
"+##%####%O##%##o+##%####@###%##o+##%####%O##%##o+##%####@###%##o",
"+#O######$#O###o$#O####@$##O###o+#O######$#O###o$#O####@$##O###o",
"+#####OOoO#####o+#####OOoO#####o+#####OOoO#####o+#####OOoO#####o",
"+O+OOO ...oooooo+O+OOO ...oooooo+O+OOO ...oooooo+O+OOO ...oooooo",
"&%%%%%.ooo$$$+++&%%%%$.ooo$$++++&%%%%%.ooo$$$+++&%%%%$.ooo$$++++",
"%#####$%$%#####O%#####%$%$#####O%#####$%$%#####O%#####%$%$#####O",
"%######@%######+%####@$########+%######@%######+%####@$########+",
"%##%##@%####%##O$##%########%##O%##%##@%####%##O$##%########%##O",
"$#O###$####O###+%#O########O###o$#O###$####O###+%#O########O###o",
"%##$O##########O$#######O$#####O%##$O##########O$#######O$#####O",
".$#@%O###@#@$#O .%###@#X$##@##o .$#@%O###@#@$#O .%###@#X$##@##o ",
"o%###$##@#O$##O.o$####X%##@###O.o%###$##@#O$##O.o$####X%##@###O.",
"o$####$@#X%###O.o$###O%##O####o.o$####$@#X%###O.o$###O%##O####o.",
"o$####@@O%###@o.o$##@$##@$X###o.o$####@@O%###@o.o$##@$##@$X###o.",
"$######@$######O$##@###@#@%O#O#o$######@$######O$##@###@#@%O#O#o",
"+#####@########o$#######@##$###o+#####@########o$#######@##$###o",
"$##%#@######%##O+##%#@#@####%##o$##%#@######%##O+##%#@#@####%##o",
"+#O###$O###O###o$#O##$O####O###o+#O###$O###O###o$#O##$O####O###o",
"+#####OoOo#####o+####@OOOo#####o+#####OoOo#####o+####@OOOo#####o",
"+O+OOO ...Oooooo+O+O+O ...Oooooo+O+OOO ...Oooooo+O+O+O ...Oooooo",
"&%%%%$.ooo$$+$++&%%%%$.ooo$$+$++&%%%%$.ooo$$+$++&%%%%$.ooo$$+$++",
"%#####%$%$#####O%#####%$%$#####O%#####%$%$#####O%#####%$%$#####O",
"%##############+%####@####$####+%##############+%####@####$####+",
"%##%###@####%##O$##%########%##O%##%###@####%##O$##%########%##O",
"$#O###O####O###O%#O########O###O$#O###O####O###O%#O########O###O",
"%####O$@#@#####O$#######O$#####O%####O$@#@#####O$#######O$#####O",
".$##@%@@@$#$O#O .%###@#O$#####O .$##@%@@@$#$O#O .%###@#O$#####O ",
"o%#@$##O$###$@o.o$##X$@$#####@o.o%#@$##O$###$@o.o$##X$@$#####@o.",
"o$####X%##@###O.o$#O%@######X$O.o$####X%##@###O.o$#O%@######X$O.",
"o$###O%##@###Oo.o$@$#$O####O%#o.o$###O%##@###Oo.o$@$#$O####O%#o.",
"+###@$######@$#O$@####%@##@%###o+###@$######@$#O$@####%@##@%###o",
"$######$O######o$######$##$####o$######$O######o$######$##$####o",
"+##%####%O##%##o+##%####@###%##o+##%####%O##%##o+##%####@###%##o",
"+#O######$#O###o$#O####@$##O###o+#O######$#O###o$#O####@$##O###o",
"+#####OOoO#####o+#####OOoO#####o+#####OOoO#####o+#####OOoO#####o",
"+O+OOO ...oooooo+O+OOO ...oooooo+O+OOO ...oooooo+O+OOO ...oooooo",
"&%%%%%.ooo$$$+++&%%%%$.ooo$$++++&%%%%%.ooo$$$+++&%%%%$.ooo$$++++",
"%#####$%$%#####O%#####%$%$#####O%#####$%$%#####O%#####%$%$#####O",
"%######@%######+%####@$########+%######@%######+%####@$########+",
"%##%##@%####%##O$##%########%##O%##%##@%####%##O$##%########%##O",
"$#O###$####O###+%#O########O###o$#O###$####O###+%#O########O###o",
"%##$O##########O$#######O$#####O%##$O##########O$#######O$#####O",
".$#@%O###@#@$#O .%###@#X$##@##o .$#@%O###@#@$#O .%###@#X$##@##o ",
"o%###$##@#O$##O.o$####X%##@###O.o%###$##@#O$##O.o$####X%##@###O.",
"o$####$@#X%###O.o$###O%##O####o.o$####$@#X%###O.o$###O%##O####o.",
"o$####@@O%###@o.o$##@$##@$X###o.o$####@@O%###@o.o$##@$##@$X###o.",
"$######@$######O$##@###@#@%O#O#o$######@$######O$##@###@#@%O#O#o",
"+#####@########o$#######@##$###o+#####@########o$#######@##$###o",
"$##%#@######%##O+##%#@#@####%##o$##%#@######%##O+##%#@#@####%##o",
"+#O###$O###O###o$#O##$O####O###o+#O###$O###O###o$#O##$O####O###o",
"+#####OoOo#####o+####@OOOo#####o+#####OoOo#####o+####@OOOo#####o",
"+O+OOO ...Oooooo+O+O+O ...Oooooo+O+OOO ...Oooooo+O+O+O ...Oooooo"
};
