/* XPM */
static char *_b59432c31924fbdf2401770294aeb7cACDlTCI2efd5STVW[] = {
/* columns rows colors chars-per-pixel */
"114 38 135 2 ",
"   c None",
".  c #001312",
"X  c #001817",
"o  c #001C1A",
"O  c #00211F",
"+  c #012522",
"@  c #012826",
"#  c #032D29",
"$  c #01342E",
"%  c #063632",
"&  c #023932",
"*  c #053E39",
"=  c #05433D",
"-  c #0A433C",
";  c #00483E",
":  c #064740",
">  c #054A42",
",  c #094C45",
"<  c #084F48",
"1  c #015447",
"2  c #0E5046",
"3  c #0B534B",
"4  c #00594B",
"5  c #0B594E",
"6  c #0C5B52",
"7  c #125D52",
"8  c #006353",
"9  c #0D6056",
"0  c #0E645A",
"q  c #006D5B",
"w  c #0E685C",
"e  c #126156",
"r  c #12655A",
"t  c #14685B",
"y  c #11685C",
"u  c #116A5E",
"i  c #14685C",
"p  c #14695C",
"a  c #146A5D",
"s  c #146B5E",
"d  c #146B5F",
"f  c #116C5F",
"g  c #146C5F",
"h  c #13685C",
"j  c #116C61",
"k  c #126C60",
"l  c #126D61",
"z  c #116F63",
"x  c #136E62",
"c  c #136F62",
"v  c #126F63",
"b  c #146D60",
"n  c #126E61",
"m  c #007560",
"M  c #097361",
"N  c #0F7764",
"B  c #007C66",
"V  c #0F7967",
"C  c #127063",
"Z  c #117064",
"A  c #137164",
"S  c #137165",
"D  c #127265",
"F  c #137265",
"G  c #137366",
"H  c #137467",
"J  c #137265",
"K  c #137468",
"L  c #137568",
"P  c #137569",
"I  c #127669",
"U  c #137668",
"Y  c #137568",
"T  c #127A6C",
"R  c #137B6D",
"E  c #147B6D",
"W  c #137A6C",
"Q  c #00846C",
"!  c #13816D",
"~  c #008B72",
"^  c #158273",
"/  c #158373",
"(  c #158574",
")  c #168675",
"_  c #158474",
"`  c #009378",
"'  c #009B7F",
"]  c #13947C",
"[  c #14947C",
"{  c #199581",
"}  c #199581",
"|  c #1A9883",
" . c #1A9984",
".. c #1B9B85",
"X. c #1B9B86",
"o. c #1B9C86",
"O. c #1B9F86",
"+. c #1B9A85",
"@. c #00A385",
"#. c #00AB8B",
"$. c #1CA389",
"%. c #1CA58B",
"&. c #1DAB90",
"*. c #1DAD91",
"=. c #1DAC91",
"-. c #00B391",
";. c #00BB97",
":. c #20B397",
">. c #22B89B",
",. c #21B99C",
"<. c #22BA9C",
"1. c #23BD9F",
"2. c #23BD9F",
"3. c #22BFA0",
"4. c #00C39D",
"5. c #00CBA3",
"6. c #1DC6A5",
"7. c #1CC9A7",
"8. c #1CCBA8",
"9. c #00D2A9",
"0. c #00D9AF",
"q. c #14D2AC",
"w. c #14DAB3",
"e. c #20C0A1",
"r. c #01E0B4",
"t. c #00E6B9",
"y. c #0CE4B9",
"u. c #01ECBD",
"i. c #08ECBF",
"p. c #10E1B7",
"a. c #10E1B8",
"s. c #09EEC0",
"d. c #00F5C4",
"f. c #08F0C2",
"g. c #00FFCC",
/* pixels */
"                  $ $ $ $ $ $ $ $ $ $ $ % $ $ $ $ $ $ & $ $ $ $ $ $ $ & $ $ $ $ % % % # % $ $ $ $ $ & & $ $ $ $ $ $ $ $ $ $ $ $ % % % # % % % # % # % $ $ $ $ $ $ & & $ $ $ $ $ # $ $ $ $ $ $ $ $ $ $ $ $ $ $ $ $                   ",
"            & & & & & & & $ & & % % $ % & % % % & $ & & & % & & $ & & & & $ $ = % % % % & $ $ & & $ $ & $ & & & $ & & & & & & $ % % % % % # % % % % $ % & % $ $ & & & $ & $ $ & $ - = $ $ $ $ = $ $ & & & & & $ & & & &             ",
"          & & & 5 ! %.,.2.2.<.<.3.3.3.3.3.3.>.3.2.<.<.2.2.2.2.2.<.<.3.<.3.3.<.<.2.2.2.2.<.2.2.2.3.3.<.3.2.2.2.2.3.3.3.<.3.3.3.<.2.2.2.2.2.2.2.2.2.2.2.2.2.2.2.2.3.<.3.3.3.<.3.3.2.2.2.2.<.3.3.3.3.<.3.3.2.2.:.$.! 4 & & &           ",
"        = = 5 $.| ( T H A A A N b b b x j y i i t h h h t t t t a a t t t t t t t t t t t t t t t t t t t t t t t t t t t t t t t t t 7 t t t t t t t t t t t t t t t t t t t t t t t t p p s s s p t ! Z Z H T ( $.$.5 = =         ",
"      = = N o./ P P Z n g h h h 7 i e 7 t i 7 t e e e e 7 7 7 7 7 7 7 7 7 t 7 7 7 7 7 7 7 7 7 7 7 7 7 7 7 7 7 7 7 7 7 7 7 7 7 7 7 7 7 7 7 7 7 7 7 7 7 7 7 7 7 7 7 7 7 7 7 7 7 7 t 7 e t 7 7 7 t t t t a a M Z H U P / O.M ; =       ",
"    ; ; V [ T P Z n w 0 9 9 5 5 7 2 7 2 2 2 2 2 2 2 2 2 2 2 2 2 - 7 - - - ; 7 - 2 2 2 2 2 2 2 2 2 2 2 2 2 2 2 2 2 2 2 2 2 2 2 2 2 2 2 2 2 2 2 2 2 2 2 2 2 2 2 2 2 2 2 2 2 2 2 2 2 - ; 7 2 7 2 2 5 5 5 5 7 7 0 w n Z U T [ V ; ;     ",
"  > 1 8 O.T U z w 0 6 6 3 3 3 , 2 2 2 2 2 * 2 * - - - - - - - - - - - - - - - - - - - - - - - - - - - - - - - - - - - - - - - - - - - - - - - - - - - - - - - - - - - - - - - - - - - - - - - - ; - ; 5 1 5 5 6 9 w Z U T o.w ; >   ",
"  1 1 &._ U Z y 6 6 3 , , ; = = * * % * * % % * % % % % % % % % - - % % % % % - % % % % % % % % $ % % % % % % % % % % % % & $ & % % - % % % % % % % % % % % % % % % % % % & & & % $ - - - - - - - - - - - 2 > 3 6 9 w Z U ! *.4 1   ",
"  4 Z X.P Z w 0 6 < > : * * * & % % % % # # # # % # % # # # # # + # # # # # # % # # # # # # # # # # # % % # # # # # # # # # # # % # # % # # % # % # # # + % + % # # # # % # # % # % # % # % % % % % % * * * = > , 5 6 w K I  .M 4   ",
"8 4 } R P j 0 6 < > = & & & $ $ # % # # # # # + + + + + + + + + O + + + + + + + + + + + + + + + + + + + + + + + + + + # + + + + + + o + + + + + o + + # + + + # + + + + + + + + o + + + # # # # $ # $ % % * * * > < 5 0 j K ^ } 8 4 ",
"q 8 &.T P 0 6 < > = & % $ $ # # # + + # + + O O o o o + o o o + O O O O o o o O o o o o + o o + o o o o o o o o + o o o + o o o o + + o X + + + o o o o o o + o + o o o O o O O o + o + + + + + @ # # # # $ % * * > < 6 w K T =.8 q ",
"q q 3.P Z 0 3 < = * & $ # # @ @ + + + o O o O o o o o o X o o X X X X X o o o X o o o o o X X X o o o o . o o o o o o o o o o o . o X X . X . . . o o X o X . o o o o o o . o o o o o o o o + + O @ @ # # # $ & * : < 5 0 Z I ,.q q ",
"m m 3.K j 9 3 < = * % # @ @ @ @ + + o + o o o o X X X X . . . X X X X X X X X X . o o o . o X X . . o . o X X X o . . o X X X X X X X o X o X X o o o . . . . . o o o . o o o . o o o o o o o + O O @ @ @ # $ $ & = , 3 9 j P 3.m m ",
"B B 3.S j 9 < > * % % # # @ @ + + + o o o o o X X X X X . . . . X . X X X . X X . . . o . . . o . o o . . o . X . o . o X X X . X X . X . X . o . . X . . . . . . . . o . . o . . o . o o o o o O @ O @ @ @ @ $ & * : 3 6 j Z 3.B B ",
"Q B 3.S j 6 < > * % # # @ @ + O + o o o X X X . X X . . . . . . . . . . . . . . . . . . . . . . . . . . . . . . . . . . . . . . . . . . . . . . . . . . . . . . . . . . . . . o . o . o o o o o O O O @ @ @ # $ & * : 3 6 u Z 3.Q Q ",
"~ ~ 3.S j 6 < = * % # @ @ @ + O o o o X o X X X . . . . . . . . . . . . . . . . . . . . . . . . . . . . . . . . . . . . . . . . . . . . . . . . . . . . . . . . . . . . . . . . . . . o . o o o O O O O @ @ @ # % * : 3 6 u F 3.~ ~ ",
"@.~ 3.x k 6 < : * $ # # @ @ + O O X o X X X X . . . . . . . . . . . . . . . . . . . . . . . . . . . . . . . . . . . . . . . . . . . . . . . . . . . . . . . . . . . . . . . . . . . . X X X X o O O O O @ @ @ # $ * = < 6 j S 2.} } ",
"@.@.3.S r 6 < - * $ # @ @ + O O O X o X X X . . . . . . . . . . . . . . . . . . . . . . . . . . . . . . . . . . . . . . . . . . . . . . . . . . . . . . . . . . . . . . . . . . . . . . X X X o X X O O + @ @ # $ % = < 6 j S 2.~ @.",
"@.@.3.x k 6 < - * $ # @ @ + O O O X X X X X X . . . . . . . . . . . . . . . . . . . . . . . . . . . . . . . . . . . . . . . . . . . . . . . . . . . . . . . . . . . . . . . . . . . . X . X o X O O O O + @ @ # $ * = < 6 j j 2.@.@.",
"@.@.3.x k 6 < = * $ $ @ + + O O O X o X X . X . . . . . . . . . . . . . . . . . . . . . . . . . . . . . . . . . . . . . . . . . . . . . . . . . . . . . . . . . . . . . . . . . . . . . X X X X X O O O + @ @ $ % * : < 6 r S 3.@.#.",
"-.-.3.S 7 6 < = * $ # @ @ O O O o o o X . X . . . . . . . . . . . . . . . . . . . . . . . . . . . . . . . . . . . . . . . . . . . . . . . . . . . . . . . . . . . . . . . . . . . . . . X X X X o o O O + + @ @ $ * = < 6 i K 2.-.-.",
";.;.3.S j 6 < : * $ # @ @ + @ O O o o X X X X . . . . . . . . . . . . . . . . . . . . . . . . . . . . . . . . . . . . . . . . . . . . . . . . . . . . . . . . . . . . . . . . . . . . X X X X X o O O O + @ # # $ * = < 6 0 K 2.;.;.",
";.5.3.x j 6 < : * % # @ @ @ O O O o o X X X X X . . . . . . . . . . . . . . . . . . . . . . . . . . . . . . . . . . . . . . . . . . . . . . . . . . . . . . . . . . . . . . . . . . X X X X o o O O O + @ @ @ $ $ * : < 6 j K ,.4.4.",
"5.5.3.S j 7 < : * % $ @ @ @ @ O O O o o X X X X . . . . . . . . . . . . . . . . . . . . . o . . . . . . . . . . . . . . . . . . . . . . . . . . . . . . . . . . . . . . . . . X X . X X X o o o o O O @ @ # # # % = : < 6 i P 2.5.5.",
"9.9.3.x j 6 5 : * & $ # @ @ @ O + O o o X X o X X X X X X . X X . . . X X . X . . . o . o . . . X . . . X . . . . . X . X . X . . . o . o . . . . . X . X . X . . . X X . X . X X X X X o o o O O O @ + @ # # % % * = < 6 j K ,.9.9.",
"0.0.3.S z 6 3 < : & % # # # @ @ @ O O O O o o o X X X X X X X X . . X X X X X o . o o . o o o . X X o X X X o X . . X X X X X X . o o . . o o . o X o . o X X X . . X X X X X X X X o o o o o O + + @ @ # # # % * = < 6 0 j K ,.0.0.",
"r.r.3.P Z 0 5 , = * & $ # # @ @ @ + O O O o O o o o o X X X X X . X o o X o o X . o o . . . . . o o o X o o o X . X X X o X o X . o o . o o . . o X o o o X o o . X X X X X o o o o o O o O + + + @ @ @ @ # # % * = < 6 0 j P 2.r.r.",
"t.t.6.E K w 6 3 > * * % $ $ # @ @ @ @ @ + + + O O O O O O O O O o o o o o o + o o o + o + + + + o o o + o o o o X o + o + o o + o + o o + o + + o o o + o o o o o o o O O O O o O O + + + + + + @ @ # @ # % % * = = < 6 j P R 6.t.t.",
"s.s.q._ K j 0 5 < > * * * % % $ # # @ @ @ @ # @ + + # + + + + + + o + o # o # o o + + o + o + o # + + + + + + + + + + + + + + + + + + + + o + + # + + + + + + + + + + + + + + + + + + + # # # # # # # % * % * = = < 6 0 0 P ^ q.s.s.",
"  d.y.| P Z w 9 3 < > = * * * % % % % % % % # # # # # # # # # # % # % # % # # % # # % # % # % # # # # % # + # # # # # # # # # # # + # # # # % # # # # # # # # # # # # # # # # % # % % # # % # % % * % * * = = < < 6 0 0 P P } y.d.  ",
"  d.d.6._ P Z w 0 6 < < > > : = = * * * % * * % * % % % % % % % % % % % % % % % % % % % % % % % % % % % % % % % - % % % % % % % % % - % % % % % % % % % % % % % % % % % % % % % % % % * % * * * * = = = = < < < 6 0 0 Z P ^ 6.d.d.  ",
"  g.g.i.X.T P n 0 0 6 6 < < < < < , , : , - - - - - - - - - - - - - - - - - - - - - - - - - - - - - - - - - - - - - - - - - - - - - - - - - - - - - - - - - - - - - - - - - - - - - - - - , : , , , , < < 3 3 6 0 0 j P T X.i.g.g.  ",
"    g.g.y.} R P K j j 7 7 7 7 7 7 2 7 2 7 2 2 2 2 2 2 2 2 2 2 2 2 2 2 2 2 2 2 2 2 2 2 2 2 2 2 2 2 2 2 2 2 2 2 2 2 2 2 2 2 2 2 2 2 2 2 2 2 2 2 2 2 2 2 2 2 2 2 2 2 2 2 2 2 2 2 2 2 2 3 2 2 3 7 3 6 3 5 6 6 6 0 j j K P R | a.g.g.    ",
"      g.g.a.X.) K K K x j j 7 b i i e i 7 7 i t 7 t 7 7 7 7 7 7 7 7 7 7 7 7 7 7 7 i 7 7 7 7 7 7 7 7 7 7 7 7 7 7 7 7 7 7 7 7 7 7 7 7 7 7 7 7 7 7 7 7 7 7 7 7 7 7 7 7 7 7 7 7 7 7 7 7 e r e r 7 r r r t y n n n Z K P _ X.a.g.g.      ",
"        g.g.f.8. .R E K K S S d d d d d i i b d i i i i i i d d t t t t t t t t d i d E i i i i i i i i d i d S i i i i i i i i t t t t t t t t t t t t t t t t t t t t t t t t t p p p s s s s c c c F F F P E _ | 8.s.g.g.        ",
"          g.g.g.f.w.6.3.3.3.2.2.2.2.2.2.2.2.2.2.2.2.2.2.2.2.2.2.2.2.2.2.2.2.2.>.2.2.2.2.2.2.2.2.2.2.2.2.2.2.2.2.2.2.2.2.2.2.2.2.2.2.2.2.2.2.2.2.2.2.2.2.2.2.2.2.2.2.2.2.2.2.2.2.2.2.2.2.3.2.3.2.2.2.2.2.2.3.3.7.w.f.g.g.g.          ",
"            g.g.g.g.g.g.g.g.g.g.g.g.g.g.g.g.g.g.f.g.g.g.g.g.g.g.g.g.g.g.w.f.f.f.g.g.g.g.g.g.g.g.a.f.g.g.g.g.g.g.g.g.g.g.f.g.g.g.g.g.g.g.g.g.g.g.g.g.g.g.g.g.g.g.g.g.g.g.g.g.g.g.g.g.g.g.g.g.g.g.g.g.g.g.g.g.g.g.g.g.g.g.            ",
"                  g.g.g.g.g.g.g.g.g.g.g.g.g.g.g.g.g.g.g.g.g.g.g.g.g.g.g.s.f.g.g.g.g.g.g.g.g.g.g.g.g.g.g.g.g.g.g.g.g.g.g.g.g.g.g.g.g.g.g.g.g.g.g.g.g.g.g.g.g.g.g.g.g.g.g.g.g.g.g.g.g.g.g.g.g.g.g.g.g.g.g.g.g.g.g.g.                  "
};
