/* XPM */
static char *_7210d98ec374d8eac81581d7f71803fRT35ReDYMNs56jxx[] = {
/* columns rows colors chars-per-pixel */
"114 38 146 2 ",
"   c None",
".  c #021414",
"X  c #021717",
"o  c #031717",
"O  c #041616",
"+  c #051717",
"@  c #031817",
"#  c #021B19",
"$  c #021B1A",
"%  c #071919",
"&  c #0C1E1E",
"*  c #0C1F1E",
"=  c #0D1F1F",
"-  c #022622",
";  c #062622",
":  c #022A25",
">  c #1B2E2D",
",  c #00352E",
"<  c #003830",
"1  c #013830",
"2  c #013A31",
"3  c #003B33",
"4  c #003E35",
"5  c #003F36",
"6  c #223131",
"7  c #213433",
"8  c #00443A",
"9  c #01453A",
"0  c #00453B",
"q  c #084338",
"w  c #084339",
"e  c #00483E",
"r  c #004E42",
"t  c #005346",
"y  c #005548",
"u  c #00594B",
"i  c #3C4C4B",
"p  c #3D4D4C",
"a  c #006050",
"s  c #006251",
"d  c #006351",
"f  c #006352",
"g  c #016553",
"h  c #006655",
"j  c #006D5A",
"k  c #006D5B",
"l  c #006E5A",
"z  c #016E5A",
"x  c #016F5A",
"c  c #01715C",
"v  c #01725D",
"b  c #01735D",
"n  c #01745E",
"m  c #007560",
"M  c #007661",
"N  c #007761",
"B  c #007B64",
"V  c #007C65",
"C  c #007C66",
"Z  c #007D66",
"A  c #425050",
"S  c #435151",
"D  c #485B59",
"F  c #495C5A",
"G  c #546060",
"H  c #008269",
"J  c #00846C",
"K  c #008B72",
"L  c #009477",
"P  c #0E9074",
"I  c #0E9075",
"U  c #009378",
"Y  c #009578",
"T  c #009679",
"R  c #009A7C",
"E  c #009B7F",
"W  c #009D7E",
"Q  c #009F7F",
"!  c #1F9F81",
"~  c #00A181",
"^  c #00A385",
"/  c #00AB8B",
"(  c #00B391",
")  c #00BB97",
"_  c #2EA788",
"`  c #3BAB8D",
"'  c #46AE91",
"]  c #51B296",
"[  c #5BB69B",
"{  c #66BAA0",
"}  c #70BEA6",
"|  c #00C39D",
" . c #00CBA3",
".. c #00D2A9",
"X. c #00D9AF",
"o. c #01E0B4",
"O. c #00E6B9",
"+. c #01ECBD",
"@. c #7BC2AB",
"#. c #00F2C2",
"$. c #00F7C6",
"%. c #06F7C7",
"&. c #08F7C7",
"*. c #00FBC9",
"=. c #00FFCC",
"-. c #04FFCD",
";. c #07FFCD",
":. c #5CF2D3",
">. c #5DF2D3",
",. c #5BFADA",
"<. c #5CFADA",
"1. c #5FFFDF",
"2. c #60FFDF",
"3. c #68FFE1",
"4. c #8F9998",
"5. c #91A19E",
"6. c #92A29F",
"7. c #A0ABA9",
"8. c #A5ABAB",
"9. c #A1ACAA",
"0. c #A9B0B0",
"q. c #AAB1B0",
"w. c #85C7B1",
"e. c #8FCBB7",
"r. c #9AD0BD",
"t. c #A4D4C4",
"y. c #ADD9CA",
"u. c #B7DDD0",
"i. c #9CEDDB",
"p. c #9EEDDB",
"a. c #B8E9DC",
"s. c #BDEADD",
"d. c #92FDE7",
"f. c #93FDE7",
"g. c #9DFEEA",
"h. c #9EFEEA",
"j. c #B8FFF1",
"k. c #C0E2D6",
"l. c #C0E6DA",
"z. c #C5E6DB",
"x. c #D4F5EC",
"c. c #D5F5EC",
"v. c #E1FFF9",
"b. c #E4FFFA",
"n. c #FBFFFE",
"m. c white",
/* pixels */
"                  , , , , , , , , , , , , , , , , , , , , , , , , , , , , , , , , , , , , , , , , , , , , , , , , , , , , , , , , , , , , , , , , , , , , , , , , , , , , , , , , , , , , , , , , , , , , , , , ,                   ",
"            1 1 1 1 1 1 1 1 1 1 < < < < < < < < < < < < < < < < < < < < < < < < < < < < < < < < < < < < < < < < < < < < < < < < 1 1 1 1 1 1 1 1 1 1 1 1 1 1 1 1 1 1 1 1 1 1 1 1 1 1 1 1 1 1 1 1 1 1 1 1 < < < < 1 1 1 1             ",
"          3 3 4 d H T ~ ~ ~ ~ ~ ~ ~ ~ ~ ~ ~ ~ ~ ~ ~ ~ ~ ~ ~ ~ ~ ~ ~ ~ ~ ~ ~ ~ ~ ~ ~ ~ ~ ~ ~ ~ ~ ~ ~ ~ ~ ~ ~ ~ ~ ~ ~ ~ ~ ~ ~ ~ ~ ~ ~ ~ ~ ~ ~ ~ ~ ~ ~ ~ ~ ~ ~ ~ ~ ~ ~ ~ ~ ~ ~ ~ ~ ~ ~ ~ ~ ~ ~ ~ ~ ~ ~ ~ ~ ~ ~ W L H d 4 1 1           ",
"        4 4 g T b 8 - . . . . . . . . . . . . . . . . . . . . . . . . . . . . . . . . . . . . . . . . . . . . . . . . . . . . . . . . . . . . . . . . . . . . . . . . . . . . . . . . . . . . . . . . . . . $ : 8 b T d 8 8         ",
"      8 8 V n 1 . . . . . . . . . . . . . . . . . . . . . . . . . . . . . . . . . . . . . . . . . . . . . . . . . . . . . . . . . . . . . . . . . . . . . . . . . . . . . . . . . . . . . . . . . . . . . . . . . . 1 b B 8 8       ",
"    e e V g $ . . . . . . . . . . . . . . . . . . . . . . . . . . . . . . . . . . . . . . . . . . . . . . . . . . . . . . . . . . . . . . . . . . . . . . . . . . . . . . . . . . . . . . . . . . . . . . . . . . . . $ d C e e     ",
"  r r l b $ . . . . . . . . . . . . . . . . . . . . . . . . . . . . . . . . . . . . . . . . . . . . . . . . . . . . . . . . . . . . . . . . . . . . . . . . . . . . . . . . . . . . . . . . . . . . . . . . . . . . . . $ b l r r   ",
"  t y R 1 . . . . . . . . . . . . . . . . . . . . . . . . . . . . . . . . . . . . . . . . . . . . . . . . . . . . . . . . . . . . . . . . . . . . . . . . . . . . . . . . . . . . . . . . . . . . . . . . . . . . . . . . < R y t   ",
"  y N l . . . . . . . . . . . . . . . . . . . . . . . . . . . . . . . . . . . . . . . . . . . . . . . . . . . . . . . . . . . . . . . . . . . . . . . . . . . . . . . . . . . . . . . . . . . . . . . . . . . . . . . . . . l B y   ",
"d d P w . . . . . . . . . . . . . . . . . . . . . . . . . . . . . . . . . . . . . . . . . . . . . . . . . . . . . . . . . . . . . . . . . . . . . . . . . . . . . . . . . . . . . . . . . . . . . . . . . . . . . . . . . . w I a a ",
"h h ! ; . . . . . . . . . . . . . . . . . . . . . . . . . . . . . . . . . . . . . . . . . . . . . . . . . . . . . . . . . . . . . . . . . . . . . . . . . . . . . . . . . . . . . . . . . . . . . . . . . . . . . . . . . . ; ! h h ",
"k k _ @ . . . . . . . . . . . . . . . . . . . . . . . . . . . . . . . . . . . . . . . . . . . . . . . . . . . . . . . . . . . . . . . . . . . . . . . . . . . . . . . . . . . . . . . . . . . . . . . . . . . . . . . . . . + _ k k ",
"N m ` . . . . . . . . . . . . . . . . . . . . . . . . . . . . . . . . . . . . . . . . . . . . . . . . . . . . . . . . . . . . . . . . . . . . . . . . . . . . . . . . . . . . . . . . . . . . . . . . . . . . . . . . . . . . ` N N ",
"C C ' . . . . . . . . . . . . . . . . . . . . . . . . . . . . . . . . . . . . . . . . . . . . . . . . . . . . . . . . . . . . . . . . . . . . . . . . . . . . . . . . . . . . . . . . . . . . . . . . . . . . . . . . . . . . ' V V ",
"J J ] . . . . . . . . . . . . . . . . . . . . . . . . . . . . . . . . . . . . . . . . . . . . . . . . . . . . . . . . . . . . . . . . . . . . . . . . . . . . . . . . . . . . . . . . . . . . . . . . . . . . . . . . . . . . ] J J ",
"K K [ . . . . . . . . . . . . . . . . . . . . . . . . . . . . . . . . . . . . . . . . . . . . . . . . . . . . . . . . . . . . . . . . . . . . . . . . . . . . . . . . . . . . . . . . . . . . . . . . . . . . . . . . . . . . [ K K ",
"U U { . . . . . . . . . . . . . . . . . . . . . . . . . . . . . . . . . . . . . . . . . . . . . . . . . . . . . . . . . . . . . . . . . . . . . . . . . . . . . . . . . . . . . . . . . . . . . . . . . . . . . . . . . . . . { U U ",
"~ R } . . . . . . . . . . . . . . . . . . . . . . . . . . . . . . . . . . . . . . . . . . . . . . . . . . . . . . . . . . . . . . . . . . . . . . . . . . . . . . . . . . . . . . . . . . . . . . . . . . . . . . . . . . . . } ~ R ",
"^ ^ } O . . . . . . . . . . . . . . . . . . . . . . . . . . . . . . . . . . . . . . . . . . . . . . . . . . . . . . . . . . . . . . . . . . . . . . . . . . . . . . . . . . . . . . . . . . . . . . . . . . . . . . . . . . . @.^ ^ ",
"/ / w.O . . . . . . . . . . . . . . . . . . . . . . . . . . . . . . . . . . . . . . . . . . . . . . . . . . . . . . . . . . . . . . . . . . . . . . . . . . . . . . . . . . . . . . . . . . . . . . . . . . . . . . . . . . . w./ / ",
"( ( e.. . . . . . . . . . . . . . . . . . . . . . . . . . . . . . . . . . . . . . . . . . . . . . . . . . . . . . . . . . . . . . . . . . . . . . . . . . . . . . . . . . . . . . . . . . . . . . . . . . . . . . . . . . . . e.( ( ",
") ) r.. . . . . . . . . . . . . . . . . . . . . . . . . . . . . . . . . . . . . . . . . . . . . . . . . . . . . . . . . . . . . . . . . . . . . . . . . . . . . . . . . . . . . . . . . . . . . . . . . . . . . . . . . . . . r.) ) ",
")  .t.. . . . . . . . . . . . . . . . . . . . . . . . . . . . . . . . . . . . . . . . . . . . . . . . . . . . . . . . . . . . . . . . . . . . . . . . . . . . . . . . . . . . . . . . . . . . . . . . . . . . . . . . . . . . t.| | ",
" . .y.. . . . . . . . . . . . . . . . . . . . . . . . . . . . . . . . . . . . . . . . . . . . . . . . . . . . . . . . . . . . . . . . . . . . . . . . . . . . . . . . . . . . . . . . . . . . . . . . . . . . . . . . . . . . y. . .",
"....u.. . . . . . . . . . . . . . . . . . . . . . . . . . . . . . . . . . . . . . . . . . . . . . . . . . . . . . . . . . . . . . . . . . . . . . . . . . . . . . . . . . . . . . . . . . . . . . . . . . . . . . . . . . . . u.....",
"X.X.k.. . . . . . . . . . . . . . . . . . . . . . . . . . . . . . . . . . . . . . . . . . . . . . . . . . . . . . . . . . . . . . . . . . . . . . . . . . . . . . . . . . . . . . . . . . . . . . . . . . . . . . . . . . . . k.X.X.",
"o.o.z.& . . . . . . . . . . . . . . . . . . . . . . . . . . . . . . . . . . . . . . . . . . . . . . . . . . . . . . . . . . . . . . . . . . . . . . . . . . . . . . . . . . . . . . . . . . . . . . . . . . . . . . . . . . % z.o.o.",
"O.O.a.6 . . . . . . . . . . . . . . . . . . . . . . . . . . . . . . . . . . . . . . . . . . . . . . . . . . . . . . . . . . . . . . . . . . . . . . . . . . . . . . . . . . . . . . . . . . . . . . . . . . . . . . . . . . > s.O.O.",
"+.+.i.F . . . . . . . . . . . . . . . . . . . . . . . . . . . . . . . . . . . . . . . . . . . . . . . . . . . . . . . . . . . . . . . . . . . . . . . . . . . . . . . . . . . . . . . . . . . . . . . . . . . . . . . . . . D p.+.+.",
"  #.:.6.. . . . . . . . . . . . . . . . . . . . . . . . . . . . . . . . . . . . . . . . . . . . . . . . . . . . . . . . . . . . . . . . . . . . . . . . . . . . . . . . . . . . . . . . . . . . . . . . . . . . . . . . . . 5.>.#.  ",
"  $.&.x.p . . . . . . . . . . . . . . . . . . . . . . . . . . . . . . . . . . . . . . . . . . . . . . . . . . . . . . . . . . . . . . . . . . . . . . . . . . . . . . . . . . . . . . . . . . . . . . . . . . . . . . . . p x.&.$.  ",
"  *.*.<.7.& . . . . . . . . . . . . . . . . . . . . . . . . . . . . . . . . . . . . . . . . . . . . . . . . . . . . . . . . . . . . . . . . . . . . . . . . . . . . . . . . . . . . . . . . . . . . . . . . . . . . . . & 9.<.*.*.  ",
"    =.=.f.4.+ . . . . . . . . . . . . . . . . . . . . . . . . . . . . . . . . . . . . . . . . . . . . . . . . . . . . . . . . . . . . . . . . . . . . . . . . . . . . . . . . . . . . . . . . . . . . . . . . . . . . . 4.f.=.=.    ",
"      =.;.g.q.S . . . . . . . . . . . . . . . . . . . . . . . . . . . . . . . . . . . . . . . . . . . . . . . . . . . . . . . . . . . . . . . . . . . . . . . . . . . . . . . . . . . . . . . . . . . . . . . . . . S q.g.;.=.      ",
"        =.=.1.v.8.G 6 % . . . . . . . . . . . . . . . . . . . . . . . . . . . . . . . . . . . . . . . . . . . . . . . . . . . . . . . . . . . . . . . . . . . . . . . . . . . . . . . . . . . . . . . . . . % 6 G 8.v.2.=.=.        ",
"          =.=.;.3.j.b.n.m.m.m.m.m.m.m.m.m.m.m.m.m.m.m.m.m.m.m.m.m.m.m.m.m.m.m.m.m.m.m.m.m.m.m.m.m.m.m.m.m.m.m.m.m.m.m.m.m.m.m.m.m.m.m.m.m.m.m.m.m.m.m.m.m.m.m.m.m.m.m.m.m.m.m.m.m.m.m.m.m.m.m.m.m.m.m.m.m.m.n.b.j.3.;.=.=.          ",
"            =.=.=.=.=.=.=.=.=.=.=.=.=.=.=.=.=.=.=.=.=.=.=.=.=.=.=.=.=.=.=.=.=.=.=.=.=.=.=.=.=.=.=.=.=.=.=.=.=.=.=.=.=.=.=.=.=.=.=.=.=.=.=.=.=.=.=.=.=.=.=.=.=.=.=.=.=.=.=.=.=.=.=.=.=.=.=.=.=.=.=.=.=.=.=.=.=.=.=.=.=.=.            ",
"                  =.=.=.=.=.=.=.=.=.=.=.=.=.=.=.=.=.=.=.=.=.=.=.=.=.=.=.=.=.=.=.=.=.=.=.=.=.=.=.=.=.=.=.=.=.=.=.=.=.=.=.=.=.=.=.=.=.=.=.=.=.=.=.=.=.=.=.=.=.=.=.=.=.=.=.=.=.=.=.=.=.=.=.=.=.=.=.=.=.=.=.=.=.=.=.=.                  "
};
