/* XPM */
static char *_a716be221f443f5f4666153f89bd1ffz8r9lvSCApEmzvdN[] = {
/* columns rows colors chars-per-pixel */
"69 64 232 2 ",
"   c #0D0D0B",
".  c #090A06",
"X  c #130C03",
"o  c #130E0B",
"O  c #12120D",
"+  c #191309",
"@  c #141413",
"#  c #191713",
"$  c #191915",
"%  c #1C1C1B",
"&  c #171815",
"*  c #10100E",
"=  c #221709",
"-  c #231C14",
";  c #201F1B",
":  c #1E231D",
">  c #24221E",
",  c #2B251D",
"<  c #2B2316",
"1  c #35281C",
"2  c #1E1E20",
"3  c #1F2120",
"4  c #242423",
"5  c #2A2622",
"6  c #2C2924",
"7  c #2B2B2B",
"8  c #272729",
"9  c #322B23",
"0  c #352E28",
"q  c #3A342A",
"w  c #323231",
"e  c #3C3C3B",
"r  c #383835",
"t  c #463A2C",
"y  c #443D31",
"u  c #473D36",
"i  c #543D37",
"p  c #49443A",
"a  c #53473A",
"s  c #444445",
"d  c #4B4845",
"f  c #4B4B4A",
"g  c #4B4641",
"h  c #574D46",
"j  c #5D5345",
"k  c #5B534B",
"l  c #585548",
"z  c #535352",
"x  c #5C5C5C",
"c  c #5C5A55",
"v  c #645B4D",
"b  c #66564A",
"n  c #6A5F54",
"m  c #655C55",
"M  c #6E584E",
"N  c #6B625B",
"B  c #686156",
"V  c #73695D",
"C  c #786759",
"Z  c #656564",
"A  c #6D6C6C",
"S  c #6C6762",
"D  c #746C66",
"F  c #7B736C",
"G  c #7A746A",
"H  c #7B7572",
"J  c #7C7D7B",
"K  c #747475",
"L  c #8A6856",
"P  c #86715E",
"I  c #82756A",
"U  c #8C7B6A",
"Y  c #867767",
"T  c #957B68",
"R  c #847B75",
"E  c #8B7E74",
"W  c #8F7973",
"Q  c #A37C6B",
"!  c #99836B",
"~  c #8C8175",
"^  c #8C837B",
"/  c #88837D",
"(  c #948675",
")  c #9C8672",
"_  c #9C8B7C",
"`  c #988779",
"'  c #A58E7B",
"]  c #A6947E",
"[  c #A8927D",
"{  c #B39C7D",
"}  c #7F7D80",
"|  c #7D8485",
" . c #888786",
".. c #958B84",
"X. c #9C8C83",
"o. c #948D8A",
"O. c #998C85",
"+. c #9B938D",
"@. c #9B9184",
"#. c #959494",
"$. c #9C9C9B",
"%. c #9A9995",
"&. c #8E908D",
"*. c #A98D85",
"=. c #A49483",
"-. c #A99684",
";. c #AB9A85",
":. c #A2958A",
">. c #A69B8C",
",. c #AC9C8B",
"<. c #AC968C",
"1. c #B29D85",
"2. c #B19E8B",
"3. c #BC9D8F",
"4. c #A59B93",
"5. c #AC9D93",
"6. c #A29D9A",
"7. c #A79B98",
"8. c #B19F93",
"9. c #9BA49F",
"0. c #ADA28D",
"q. c #B4A28D",
"w. c #BBA48D",
"e. c #B6A286",
"r. c #ADA293",
"t. c #A3A09D",
"y. c #ACA39A",
"u. c #B3A493",
"i. c #BAA693",
"p. c #B6A995",
"a. c #BBAA95",
"s. c #B3A59B",
"d. c #B5AA9B",
"f. c #BCAC9C",
"g. c #B8A699",
"h. c #BDB19E",
"j. c #9E9FA1",
"k. c #9CA3A2",
"l. c #A4A3A2",
"z. c #ACA5A3",
"x. c #ADAAA6",
"c. c #ACACAB",
"v. c #A6A8A8",
"b. c #B5ABA2",
"n. c #BAAEA2",
"m. c #B3ADAA",
"M. c #B3A8A4",
"N. c #BDB1A3",
"B. c #B5B2AC",
"V. c #BBB3AC",
"C. c #BFB8AE",
"Z. c #A9ADB0",
"A. c #B5B4B3",
"S. c #BCB5B2",
"D. c #BCBAB6",
"F. c #BCBCBB",
"G. c #B8B6B9",
"H. c #AFB0B0",
"J. c #C19E8B",
"K. c #C3AD96",
"L. c #C1AC9B",
"P. c #C5A393",
"I. c #C1B29E",
"U. c #C3A28F",
"Y. c #C1AEA2",
"T. c #C3B4A4",
"R. c #C4B4A9",
"E. c #CBB4A8",
"W. c #C4BBAC",
"Q. c #CBBAAA",
"!. c #C9B4A5",
"~. c #C3BBB5",
"^. c #CBBDB4",
"/. c #C3BDBA",
"(. c #C0B7B8",
"). c #BFC0BB",
"_. c #C3C2BD",
"`. c #CBC2BD",
"'. c #CDC5BA",
"]. c #D3C5BA",
"[. c #D9D0BF",
"{. c #BFBFC1",
"}. c #BFC5C3",
"|. c #CAC5C2",
" X c #CCC9C5",
".X c #CCCDCB",
"XX c #C4C7C6",
"oX c #D3CCC5",
"OX c #D4CECB",
"+X c #DACDC8",
"@X c #D4D1CD",
"#X c #DBD2CD",
"$X c #DAD3C6",
"%X c #D5D4D3",
"&X c #DBD5D2",
"*X c #DCDAD5",
"=X c #DCDBDB",
"-X c #D6D7D7",
";X c #CFD4D0",
":X c #E2DAD6",
">X c #E4DEDB",
",X c #E0D6D3",
"<X c #E4E1DB",
"1X c #EAE2DD",
"2X c #F2E6DB",
"3X c #DEE2E1",
"4X c #E5E5E4",
"5X c #ECE8E5",
"6X c #F2EDE4",
"7X c #F8EEEA",
"8X c #F9F3EA",
"9X c #F5F5F5",
"0X c #FEF6F3",
"qX c #FEFBF5",
"wX c #000000",
"eX c #FFFEFB",
"rX c #FEFDF9",
"tX c #FBFEFE",
"yX c #FCFFFD",
"uX c #FEFFFD",
"iX c #FFFFFD",
"pX c #FFFEFD",
"aX c #FFFDFF",
"sX c #000000",
"dX c #FDFEFF",
"fX c #FFFEFF",
"gX c #FEFFFF",
"hX c white",
"jX c #FEFEFF",
"kX c #000000",
"lX c #FFFFFE",
"zX c #F7F8F8",
/* pixels */
"sXsXsXsXsXsXsXsXsXsXsXsXsXsXsXsXsXsXsXsXsXsXsXsXsXsXsXsXsXsXsXsXsXsXsXsXsXwXsXwXwXsXwXwXsXsXsXsXwXwXsXwXsXkXsXsXkXsXkXsXkXsXsXkXsXsXsXwXsX",
"sXsXsXsXsXsXsXsXsXsXsXsXsXsXsXsXsXsXsXsXsXsXsXsXsXsXsXsXsXsXsXsXsXsXsXsXsXwXsXwXwXsXwXwXsXsXsXsXwXwXsXwXsXkXsXsXkXsXkXsXkXsXsXkXsXsXsXwXsX",
"sXsXsXsXsXsXsXsXsXsXsXsXsXsXsXsXsXsXsXsXsXsXsXsXsXsXsXsXsXsXsXsXsXsXsXsXsXwXsXwXwXsXwXwXsXsXsXsXwXwXsXwXsXkXsXsXkXsXkXsXkXsXsXkXsXsXsXwXsX",
"sXsXsXsXsXsXsXsXsXsXsXsXsXsXsXsXsXsXsXsXsXsXsXsXsXsXsXsXsXsXsXsXsXsXsXsXsXwXsXwXwXsXwXwXsXsXsXsXwXwXsXwXsXkXsXsXkXsXkXsXkXsXsXkXsXsXsXwXsX",
"sXsXsXsXsXsXsXsXsXsXsXsXsXsXsXsXsXsXsXsXsXsXsXsXsXsXsXsXsXsXsXsXsXsXsXsXsXwXsXwXwXsXwXwXsXsXsXsXwXwXsXwXsXkXsXsXkXsXkXsXkXsXsXkXsXsXsXwXsX",
"sXsXsXsXsXsXsXsXsXsXsXsXsXsXsXsXsXsXsXsXsXsXsXsXsXsXsXsXsXsXsXsXsXsXsXsXsXwXsXwXwXsXwXwXsXsXsXsXwXwXsXwXsXkXsXsXkXsXkXsXkXsXsXkXsXsXsXwXsX",
"sXsXsXsXsXsXsXsXsXsXsXsXsXsXsXsXsXsXsXsXsXsXsXsXsXsXsXsXsXsXsXsXsXsXsXsXsXwXsXwXwXsXwXwXsXsXsXsXwXwXsXwXsXkXsXsXkXsXkXsXkXsXsXkXsXsXsXwXsX",
"sXsXsXsXsXsXsXsXsXsXsXsXsXsXsXsXsXsXsXsXsXsXsXsXsXsXsXsXsXsXsXsXsXsXsXsXsXwXsXwXwXsXwXwXsXsXsXsXwXwXsXwXsXkXsXsXkXsXkXsXkXsXsXkXsXsXsXwXsX",
"sXsXsXkXkXkXkXkXwXsXwXsXsXkXkXsXkX>X&X X+X X&X%X%X&X%X>X:X>X5X7X7Xz.0X0XwXwXwXwXsXwXwXwXkXwXwXwXwXrXwXsXwXsXwXsXsXsXkXsXkXkXsXkXwXsXsXwXsX",
"sX9XsXkXkXkXzXkXwX9XsXsXzX.XA c.&X7.D :.m.OXOX&X(.m. X#X&X&XoXB.|.^.(.M././. X X X X@Xx.+.+X+X+X+X:X5X>X7X0X7XA.sX0XkXkXsX-XkXsXwXwX0XwXwX",
"kXsXsXrXkXwXkX0XwX0X0X6.e 8 e A S I s.V.M.(.&X&XS.Z x. X,X&XC.N :X#X(.(.D |.=X%X_.|./ >X&X,X#XM.+X+XoXoX/./.F.c.G.G.{.{.G.K Z./.1X0XwXsXqX",
"sX9XsXsXkX0XkX0X0X5X/ H F 5 4 x R b.^.B.7.|.oX`.&X|.m.6./.|.,X XM.,XE V.t.D.-X).9.A.o.%X&X|.+Xn o.+X:X:X&X6.G <X>X>X=XH.v.G.} o.o.C.8X0XwX",
"sXsX0XsX0X0X7X^.I n O.W o.0 m H ^ n.B.B.F S  X-Xc./.J o.z.<XB.&X7.7.+.OXc.l.).$.$.XX%X). X%./.(./._.%X.X X'.). X:X X|.l.$.#.} E y.].~.wXrX",
"zXsXsX0X0X+XM N W i i C E h $ y E s.r.4.+.S. X|.#.%.%.D.m.+X~.6.7.t. XG.l.K Z.k..X3X)._.H.h OXx.).A.&..X).*X;X.XF.-X6.m R } H E s.^.b.8XrX",
"sXwX0X1X^.3.*.<.W Q W C j j h j D W O.:.^ k 7.6...z.z.S.S 7...F z.z.H.x #.| Z.XX| }.Z.9.6.OXOX$.v.}.k.9.;X;X.XA.6.#.+.D k E D M.g.d.'.Q.qX",
"wXqX#XC.(.E.E.<.E.E.E.E.Q.R.W.N.g.n.8.s.8.X.7.O.+.7.:.4.n h :.n.z.D  .7. .).#.k.#.A.| f H.H z.m.9.v.%.c.c.c.S.`.B.D V.:.X.D 5.8.,.u.f.'.qX",
"rX0Xx.N.~ b b C ,.R.R.2.Y C g.Q.T.Q.T.T.g.R.T.C.W.h.'.T.T.f.f.p.s.<.5.:.:.X.E ` X.X.E 4...D o.N +.>.b.y.s.6.y.4.I 4.g.8.*.U L.u.p.0.0.'.0X",
"rX#XN.^ 1 p 0.p.U g.t 1 C -.=.f.I.h.f.u.g.T.T.h.) n v T.T.T.Q.f.8.L.Y.Y.E.Q.n.g.R.n.E.f.L.8.7.*.=._ X.` ` X.` W I _ _ 2.C a.3.i.e.0.0.].rX",
"rXoXr.N.G h.h.u.Y ] b U L.f.C 2.E.f.I.T.h.d.u.q q ( _ 0.T.I.h.I.g.Y.Y.g.R.g.Y b :.I.i.!.Y.3.3.L.!.f.f.T.g.f.s.g.f.8.<.U ' w.K.K.q.q.>.2XrX",
"rX'.b.b.I.h.T.a.U ` g.f.T.g.( E r.T.g.h.h.u.f.b ( N.r.V ,.T.I.h.Q.u.T.s.>.i t -.U e.L.L.3.P.J.J.i.g.a.g.2.>.:.p.Y.f.i.L.! ' K.1.p.0.u.qXwX",
"qX<Xd.r.h.p.;.p.,.U ;.u.h.d.+.~ 0.d.T.T.h.N.N.f.h.h.h.( U 0.a.h.p.p.h.N.I 0 _ g.2.) -.3.J.J.P.P.P.g.i.u.a.p.u.g.q.p.q.i.1.! w.K.p.0.2XqXwX",
"yX6XC.h.d.a.a.I.i.q.0.n.r.y.r.~ _ r.u.0.@.r.r.d.r.h.u._ C ] p.p.h.h.d.T.f.r.h.h.u.T T { L L Q P.w.w.i.q.a.g.2.u.u.p.] ! 1.3.T K.h.$XqXqXsX",
"wXrX).0.'.I.e.h.a.a.r.Y , $ , < 1 0.h.h.W.h.p.h.h.q.p.q.' ) ;.e.0.e.0.0.r.f.u.>.L.-.) ! M [ L ! P ) [ =.-.2.>.q.q.0.i.e.e.{ T U.[.qXrXwXsX",
"wXrX<Xd.q.p.a.a.I.p.N.v X X O X + ~ I.h.f.h.u.f.h.a.a.a.p.) ! K.a.h.I.p.h.r.E v C Y C U ' -.-.) T *.' ) U ) U ( _ ,.' K.{ ) ! a.qXqXwXsXsX",
"sXwX0X'.p.p.h.h.a.h.d.q + o O X = ) a.T.h.p.f.p.p.p.p.I.a.w.K.a.a.a.a.L.g.d.I p a l v G B ~ @.0.u.2.<.<.-.;.q.] ] ;.;.] 1.1.[ ].qXwXwXsXsX",
"zXsXrX6X'.q.0.h.h.p.d.- o # . # = w.I.p.h.p.p.u.p.q.2.q.u.u.q.q.w.e.q.u.u.:.G t p v v t + X + : 9 C p.u.g.u.u.p.=.1.,.2.;.2.' 2XrXwXwXsXsX",
"sXzXwXqX6X'.h.r.s.r.4.$ # @ o + t f.I.h.N.h.( 0.>.0.u.5.q.,.,.q.0.2.2.u.p.+.( y p p c l O O O . X 1 =.8.g.p.u.w.;.2.i.,.r.-.:.0XwXsXsXsXsX",
"sXyXrXwXqX8XoXC.b.B.R 0 6   e # a d.d.h.d._ 1 v B V I ~ @.u.r.r.0.>.,.5.:.-.Y p y p l G O O . & o X F s.8.u.q.e.1.1.,.q.:.:.N.rXsXsXsXsXsX",
"sXsXwXwX0XrXqX6X&X/.H % @ @ 2 $ G N.b.s.B.` , 1 1 , 1 , - < 9 q p l v B R t E b t q p ( O o @ . o + b 8.u.p.w.e.1.e.0.0.>.+.1XrXsXsXsXsXwX",
"sXsXsXwXwXrXwXwXwXsXS & @ @ & ; j G ` +.y.t.> 9 6 6 > 6 6 > , 5 > > 5 6 - = V r.r.r.V G 0 @   @ o o 0 7.0.q.e.e.e.e.q.0.r.C.rXrXsXsXsXwXwX",
"kXsXkXsXqXwXqXwXsXsXs & & 2 @ w g k g F <XD r w 7 Z Z f r 4 > > 4 : , , $ 1 v u.g.p.,.@.N $ ; o   + $ X.0.] e.{ { w.] ;.d.6XqXwXsXsXsXsXwX",
"sXsXsXkXyXyXyXyXsX9X4 % & % & e d g 6.wXsXz w 7 r .XsXyXsXzX4XXXH.9.J Z c F ^ N.d.r.d.5.R 9 4 o % e # N >.0.] e.e.] 0.V [.rXwXwXsXsXsXsXwX",
"sXsXsXsXsXsXsXsXkX-X2 & % % % e u A.9XsXkXw w w s 9XkXsXsXwXsXsXwXsXsXwXsXwXwXwX0XwX5X>X&X>   * @ * * g 4.4.y.>.:.V y 9 6.wXsXkXsXsXsXsXsX",
"sXsXsXsXsXsXsXsXsXH.3 % % 3 8 s c.9XsXkX.Xw w 7 A wXsXsXsXkXsXsXsXsXsXsXsXsXsXsXwXkXsXsXzXZ & @ * @ o 8 c Z l / q , 5 ; S kXkXsXsXsXsXsXsX",
"sXsXsXsXsXsXsXsXsX .4 7 % 2 s l.sXsXzXsXc.w 7 w v.sXsXwXsXkXsXkXsXsXsXsXsXsXsXsXsXsXsXkXsXD.&     o   ; p p B 6XS 6 0 6 u zXsXsXsXsXsXsXsX",
"sXsXsXsXsXsXsXsXsXx 4 w 4 3 K kX9XsXsXkX .w 7 w =XsXsXkXsXkXsXkXsXsXsXsXsXsXsXsXsXsXsXkXsXzX% * * @ @ o s p B.rXA.> 5 5 8 *XkXwXsXsXsXsXsX",
"sXsXsXsXsXsXsXsXkXs 4 8 8 6 H.kXsXsXkXkX#.s e f rXkXsXsXsXsXsXsXsXsXsXsXsXsXsXsXsXkXsXkXsXkXx & @ . * & r x wXrX5X0 5 6 8 l.sXsXsXsXsXsXsX",
"sXsXsXsXsXsXsXsX9X8 5 4 4 w 3XkX9XsXsXsXrXsXkXzXkXkXsXsXsXsXsXsXsXsXsXsXsXsXsXsXsXkXsXrXsX9XG.  & @ . & 8  .wXwXkXZ 6 4 2 A sXsXsXsXsXsXsX",
"sXsXsXsXsXsXsXsX.X4 7 8 8 z wXsXsXsXsXsXsXsXwXkXsXwXkXsXkXsXkXsXsXsXsXsXsXsXsXsXkXkXsXkXsXsX9X%   2 @ @ 8  XwXqX9Xz.4 2 8 s 9XsXsXsXsXsXsX",
"sXsXsXsXsXsXsXsXj.w 8 8 7 J kXsXkXsXkXkXsXkXkXsXsXsXkXsXsXsXsXsXsXsXsXsXsXsXsXsXsXwXkXsXwXsXsXx & * & @ @ B.wXwXsX4X4 4 2 4 =XsXsXsXsXsXsX",
"sXsXsXsXsXsXwXsX} 8 w 8 w G.9XsXsXsXsXsXsXsXsXsXsXsXsXsXsXsXsXsXsXsXsXsXsXsXsXsXwXsXwXsXkXsXwXv.@ % 4 & & A sXwXwXwXz 3 4 2 v.kXsXsXsXsXsX",
"sXsXsXsXsXsXkXsXx w 7 8 e =XsXsXsXsXsXsXsXsXsXsXsXsXsXsXsXsXsXsXsXsXsXsXsXsXsXsXsXsXsXsXzXwXsX5X2 & & & & d qXsXwXsX X&.Z x j.kXsXsXsXsXsX",
"sXkXsXsXsXsXkXwXe w 8 7 c yXsXkXsXsXsXsXsXsXsXsXsXsXsXsXsXsXsXsXsXsXsXsXsXsXsXsXkXsXwXkXsXkXsXkXz & & % & 5 =XsXsXwXwXsXsXsXzXkXsXsXsXsXsX",
"sXkXsXsXsXsXzX4X7 w 7 w  .yXkXsXsXsXsXsXsXsXsXsXsXsXsXsXsXsXsXsXsXsXsXsXsXsXsXsXkXsXsXwXsXsXwXwXt.% % % & % B.yXsXsXkXsXsX9XsXkXsXsXsXsXsX",
"sXkXsXsXsXsXkX|.w 7 w w D.kXwXsXsXsXsXsXsXsXsXsXsXsXsXsXsXsXsXsXsXsXsXsXsXsXsXsXsXsXsXkXwXsXsXsX4X> % > @ % J yXsXwXsXsXkXsXkXkXsXsXsXsXsX",
"sXkXsXsXsXsXkX$.w 8 w e 4XkXsXsXsXsXsXsXsXsXsXsXsXsXsXsXsXsXsXsXsXsXsXsXsXsXsXsXkXrXsXsXwXkXsXsXsXg % > % % d qXwXwXsXqXsXkXzXsXsXsXsXsXsX",
"kXsXwXkXkXsXsXK w 7 w x kXsXsXkXsXsXsXsXsXsXsXsXsXsXsXsXsXsXsXsXsXsXsXsXsXsXsXsXsXkXzXsXkXsXsXwXsX#.> > > % 7 *XwXsXwXsXwXsXkXsXsXsXsXsXsX",
"sXsXwXsXwXsXkXx 8 w w R sXsXwXsXsXsXsXsXsXsXsXsXsXsXsXsXsXsXsXsXsXsXsXsXsXsXsXsXwXkXsXkXsXsXsXsXwX<X4 ; 4 > > A.wXwXsXsXwXwXwXsXsXsXsXsXsX",
"sXsXsXsXsXsXsXsX>XXXl.5XsXsXwXkXsXsXsXsXsXsXsXsXsXsXsXsXsXsXsXsXsXsXsXsXsXsXsXsXsXsXsXsXsXsXsXsXsXsXd 4 4 8 & J kXkXkXsXsXsXsXsXsXsXsXsXsX",
"sXsXsXsXsXsXsXsXkXsX9XsXsXwXsXkXsXsXsXsXsXsXsXsXsXsXsXsXsXsXsXsXsXsXsXsXsXsXsXsXsXsXsXsXsXsXsXsXsXwX&.4 8 3 3 z kXkXsXsXkXkXkXsXsXsXsXsXsX",
"sXsXsXsXsXsXsXsXsXsXsXkXsXkXsXwXsXsXsXsXsXsXsXsXsXsXsXsXsXsXsXsXsXsXsXsXsXsXsXsXsXsXsXsXsXsXsXsXsXsX-X8 5 8 4 8 =XzXsXsXsXkXwXsXsXsXsXsXsX",
"sXsXsXsXsXsXsXsXkX9XsXwXsXwXsXkXsXsXsXsXsXsXsXsXsXsXsXsXsXsXsXsXsXsXsXsXsXsXsXsXsXsXsXsXsXsXsXsXqXsXzXs 2 4 4 8 c.kXkXsXsXsXkXsXsXsXsXsXsX",
"sXsXsXsXsXsXsXsXsXkXsXsXkXkXkXsXsXsXsXsXsXsXsXsXsXsXsXsXsXsXsXsXsXsXsXsXsXsXsXsXsXsXsXsXsXsXsXsXsXkXkX .8 4 5 3 H sXsXsXkXsXkXsXsXsXsXsXsX",
"sXsXsXsXsXsXsXsXsXwXwXkXsXsXsXsXsXsXsXsXsXsXsXsXsXsXsXsXsXsXsXsXsXsXsXsXsXsXsXsXsXsXsXsXsXsXsXsXsXsXrX%X4 3 4 8 e 9XsXsXwXsXsXsXsXsXsXsXsX",
"sXsXsXsXsXsXsXsXsXkXsXsXsXzXkXsXsXsXsXsXsXsXsXsXsXsXsXsXsXsXsXsXsXsXsXsXsXsXsXsXsXsXsXsXsXsXsXsXwXkXsX9Xs 8 3 2 w =XsXsXwXsXsXsXsXsXsXsXsX",
"sXsXsXsXsXsXsXsXkXsXsXwXsXkXsXwXsXsXsXsXsXsXsXsXsXsXsXsXsXsXsXsXsXsXsXsXsXsXsXsXsXsXsXsXsXsXsXsXsXrXsXsX-XH.#.K z %XsXsXkXsXsXkXsXsXsXsXsX",
"sXsXsXsXsXsXsXsXsXsXsXsXsXsXsXsXsXsXsXsXsXsXsXsXsXsXsXsXsXsXsXsXsXsXsXsXsXwXsXwXwXsXwXwXsXsXsXsXwXwXsXwXsXkXsXsXkXsXkXsXkXsXsXkXsXsXsXwXsX",
"sXsXsXsXsXsXsXsXsXsXsXsXsXsXsXsXsXsXsXsXsXsXsXsXsXsXsXsXsXsXsXsXsXsXsXsXsXwXsXwXwXsXwXwXsXsXsXsXwXwXsXwXsXkXsXsXkXsXkXsXkXsXsXkXsXsXsXwXsX",
"sXsXsXsXsXsXsXsXsXsXsXsXsXsXsXsXsXsXsXsXsXsXsXsXsXsXsXsXsXsXsXsXsXsXsXsXsXwXsXwXwXsXwXwXsXsXsXsXwXwXsXwXsXkXsXsXkXsXkXsXkXsXsXkXsXsXsXwXsX",
"sXsXsXsXsXsXsXsXsXsXsXsXsXsXsXsXsXsXsXsXsXsXsXsXsXsXsXsXsXsXsXsXsXsXsXsXsXwXsXwXwXsXwXwXsXsXsXsXwXwXsXwXsXkXsXsXkXsXkXsXkXsXsXkXsXsXsXwXsX",
"sXsXsXsXsXsXsXsXsXsXsXsXsXsXsXsXsXsXsXsXsXsXsXsXsXsXsXsXsXsXsXsXsXsXsXsXsXwXsXwXwXsXwXwXsXsXsXsXwXwXsXwXsXkXsXsXkXsXkXsXkXsXsXkXsXsXsXwXsX",
"sXsXsXsXsXsXsXsXsXsXsXsXsXsXsXsXsXsXsXsXsXsXsXsXsXsXsXsXsXsXsXsXsXsXsXsXsXwXsXwXwXsXwXwXsXsXsXsXwXwXsXwXsXkXsXsXkXsXkXsXkXsXsXkXsXsXsXwXsX",
"sXsXsXsXsXsXsXsXsXsXsXsXsXsXsXsXsXsXsXsXsXsXsXsXsXsXsXsXsXsXsXsXsXsXsXsXsXwXsXwXwXsXwXwXsXsXsXsXwXwXsXwXsXkXsXsXkXsXkXsXkXsXsXkXsXsXsXwXsX",
"sXsXsXsXsXsXsXsXsXsXsXsXsXsXsXsXsXsXsXsXsXsXsXsXsXsXsXsXsXsXsXsXsXsXsXsXsXwXsXwXwXsXwXwXsXsXsXsXwXwXsXwXsXkXsXsXkXsXkXsXkXsXsXkXsXsXsXwXsX"
};
