/* XPM */
static char *_d1e11fe973a459492f34e86e2c960e6OBZtNZncwa1YKdvf[] = {
/* columns rows colors chars-per-pixel */
"64 64 10 1 ",
"  c gray6",
". c gray7",
"X c #151515",
"o c #191716",
"O c #1E1918",
"+ c #2A2024",
"@ c #FF8B22",
"# c #FFB522",
"$ c #FFE11C",
"% c #1a3b72",
/* pixels */
" XXXoX XXXXXoXXXOXXXXoXX. XXXXoX XXXoX XXXXXoXXXOXXXXoXX. XXXXoX",
".XXOXXX.XOXOXXOOX..XXXOXXXXXXX. .XXOXXX.XOXOXXOOX..XXXOXXXXXXX. ",
"XoXO OOO+O+OOOOOOOOOO+O+O+OXXoOXXoXO OOO+O+OOOOOOOOOO+O+O+OXXoOX",
"XXO.+                      OXXXXXXO.+                      OXXXX",
"XXXO                        +X XXXXO                        +X X",
"XXO   @##################@   +XXXXO   @##################@   +XX",
"XXO  @####################@  +o.XXO  @####################@  +o.",
" XO  ##$%%%%%%%%%%%%%%%%$##  OXX XO  ##$%%%%%%%%%%%%%%%%$##  OXX",
"XXO  ##$%%%%%%%%%%%%%%%%$##  +XXXXO  ##$%%%%%%%%%%%%%%%%$##  +XX",
"XXO  @#$%%%%%%%%%%%%%%%%$#@  OX.XXO  @#$%%%%%%%%%%%%%%%%$#@  OX.",
".X+  @#$%%%%%%%%%%%%%%%%$#@  OOX.X+  @$$%%%%%%%%%%%%%%%%$#@  OOX",
"XOO  @#$%%%%%%%%%%%%%%%%$#@  +.XXOO  @#$%%%%%%%%%%%%%%%%$#@  +.X",
"OXO  @#$%%%%%%%%%%%%%%%%$#@  OXXOXO  @#$%%%%%%%%%%%%%%%%$#@  OXX",
"XXO  @#$%%%%%%%%%%%%%%%%$#@  +XXXXO  @#$%%%%%%%%%%%%%%%%$#@  +XX",
"XXO  @#$%%%%%%%%%%%%%%%%$#@  +o.XXO  @#$%%%%%%%%%%%%%%%%$#@  +o.",
" XO  ##$%%%%%%%%%%%%%%%%$##  OXX XO  ##$%%%%%%%%%%%%%%%%$##  OXX",
"XXO  ##$%%%%%%%%%%%%%%%%$##  +XXXXO  ##$%%%%%%%%%%%%%%%%$##  +XX",
"XXO  @#$%%%%%%%%%%%%%%%%$#@  OX.XXO  @#$%%%%%%%%%%%%%%%%$#@  OX.",
".X+  @#$%%%%%%%%%%%%%%%%$#@  OOX.X+  @#$%%%%%%%%%%%%%%%%$#@  OOX",
"XOO  @#$%%%%%%%%%%%%%%%%$#@  +.XXOO  @#$%%%%%%%%%%%%%%%%$#@  +.X",
"OXO  @#$%%%%%%%%%%%%%%%%$#@  OXXOXO  @#$%%%%%%%%%%%%%%%%$#@  OXX",
"XXO  @#$%%%%%%%%%%%%%%%%$#@  +XOXXO  @#$%%%%%%%%%%%%%%%%$#@  +XO",
"XOO  @#$%%%%%%%%%%%%%%%%$#@  +OXXOO  @#$%%%%%%%%%%%%%%%%$#@  +OX",
"XXO  ##$%%%%%%%%%%%%%%%%$##  + XXXO  ##$%%%%%%%%%%%%%%%%$##  + X",
" XO  ##$%%%%%%%%%%%%%%%%$##  +OX XO  ##$%%%%%%%%%%%%%%%%$##  +OX",
" XO  ##$%%%%%%%%%%%%%%%%$##  +OX XO  ##$%%%%%%%%%%%%%%%%$##  +OX",
"XOO  @#$%%%%%%%%%%%%%%%%$#@  +OXXOO  @#$%%%%%%%%%%%%%%%%$#@  +OX",
"XXO  ##$%%%%%%%%%%%%%%%%$##  + XXXO  ##$%%%%%%%%%%%%%%%%$##  + X",
" XO  ##$%%%%%%%%%%%%%%%%$##  +OX XO  ##$%%%%%%%%%%%%%%%%$##  +OX",
"OXO  @#$%%%%%%%%%%%%%%%%$#@  OXXOXO  @#$%%%%%%%%%%%%%%%%$#@  OXX",
"XXO  @#$%%%%%%%%%%%%%%%%$#@  +XOXXO  @#$%%%%%%%%%%%%%%%%$#@  +XO",
"XOO  @#$%%%%%%%%%%%%%%%%$#@  +OXXOO  @#$%%%%%%%%%%%%%%%%$#@  +OX",
"XXO  ##$%%%%%%%%%%%%%%%%$##  + XXXO  ##$%%%%%%%%%%%%%%%%$##  + X",
" XO  ##$%%%%%%%%%%%%%%%%$##  +OX XO  ##$%%%%%%%%%%%%%%%%$##  +OX",
"XX+  @#$%%%%%%%%%%%%%%%%$#@  +XXXX+  @#$%%%%%%%%%%%%%%%%$#@  +XX",
"X.+  @#$%%%%%%%%%%%%%%%%$#@  OXXX.+  @#$%%%%%%%%%%%%%%%%$#@  OXX",
"XX.+ @#$%%%%%%%%%%%%%%%%$#@ +XXoXX.+ @#$%%%%%%%%%%%%%%%%$#@ +XXo",
"XXO  @#$%%%%%%%%%%%%%%%%$#@  +XXXXO  @#$%%%%%%%%%%%%%%%%$#@  +XX",
"XXO  @#$%%%%%%%%%%%%%%%%$#@  +o.XXO  @#$%%%%%%%%%%%%%%%%$#@  +o.",
" XO  ##$%%%%%%%%%%%%%%%%$##  OXX XO  ##$%%%%%%%%%%%%%%%%$##  OXX",
"XXO  ##$%%%%%%%%%%%%%%%%$##  +XXXXO  ##$%%%%%%%%%%%%%%%%$##  +XX",
"XXO  @#$%%%%%%%%%%%%%%%%$#@  OX.XXO  @#$%%%%%%%%%%%%%%%%$#@  OX.",
".X+  @#$%%%%%%%%%%%%%%%%$#@  OOX.X+  @#$%%%%%%%%%%%%%%%%$#@  OOX",
"XOO  @#$%%%%%%%%%%%%%%%%$#@  +.XXOO  @#$%%%%%%%%%%%%%%%%$#@  +.X",
"OXO  @#$%%%%%%%%%%%%%%%%$#@  OXXOXO  @#$%%%%%%%%%%%%%%%%$#@  OXX",
"XXO  @#$%%%%%%%%%%%%%%%%$#@  +XXXXO  @#$%%%%%%%%%%%%%%%%$#@  +XX",
"XXO  @#$%%%%%%%%%%%%%%%%$#@  +o.XXO  @#$%%%%%%%%%%%%%%%%$#@  +o.",
" XO  ##$%%%%%%%%%%%%%%%%$##  OXX XO  ##$%%%%%%%%%%%%%%%%$##  OXX",
"XXO  ##$%%%%%%%%%%%%%%%%$##  +XXXXO  ##$%%%%%%%%%%%%%%%%$##  +XX",
"XXO  @#$%%%%%%%%%%%%%%%%$#@  OX.XXO  @#$%%%%%%%%%%%%%%%%$#@  OX.",
".X+  @#$%%%%%%%%%%%%%%%%$#@  OOX.X+  @#$%%%%%%%%%%%%%%%%$#@  OOX",
"XOO  @#$%%%%%%%%%%%%%%%%$#@  +.XXOO  @#$%%%%%%%%%%%%%%%%$#@  +.X",
"OXO  @#$%%%%%%%%%%%%%%%%$#@  OXXOXO  @#$%%%%%%%%%%%%%%%%$#@  OXX",
"XXO  @#$%%%%%%%%%%%%%%%%$#@  +XOXXO  @#$%%%%%%%%%%%%%%%%$#@  +XO",
"XOO  @#$%%%%%%%%%%%%%%%%$#@  +OXXOO  @#$%%%%%%%%%%%%%%%%$#@  +OX",
"XXO  ##$%%%%%%%%%%%%%%%%$##  + XXXO  ##$%%%%%%%%%%%%%%%%$##  + X",
" XO  ##$%%%%%%%%%%%%%%%%$##  +OX XO  ##$%%%%%%%%%%%%%%%%$##  +OX",
"XX+  @#$%%%%%%%%%%%%%%%%$#@  +XXXX+  @#$%%%%%%%%%%%%%%%%$#@  +XX",
"X.+   @##################@   OXXX.+   @##################@   OXX",
"XX.+                        +XXoXX.+                        +XXo",
"XXXXO                      OX XXXXXXO                      OX XX",
"XX XOO+OO++O+OO+O+++OOO+O+OXOXoXXX XOO+OO++O+OO+O+++OOO+O+OXOXoX",
"XoXXX XXXXXoXXXXXXO XoXX.oXXXXXXXoXXX XXXXXoXXXXXXO XoXX.oXXXXXX",
"XXoXOXXXXX.XX X.XOXXXXoX XXXXXOXXXoXOXXXXX.XX X.XOXXXXoX XXXXXOX"
};
